<?xml version="1.0" encoding="utf-8"?>
<!-- Generator: Adobe Illustrator 22.0.0, SVG Export Plug-In . SVG Version: 6.00 Build 0)  -->
<svg version="1.1" id="图层_1" xmlns="http://www.w3.org/2000/svg" xmlns:xlink="http://www.w3.org/1999/xlink" x="0px" y="0px"
	 viewBox="0 0 45 45" style="enable-background:new 0 0 45 45;" xml:space="preserve">
<style type="text/css">
	.st0{fill:none;enable-background:new    ;}
</style>
<path class="st0" d="M0,0"/>
<g>
	<path d="M22.8,43C11.4,43,2.1,33.7,2.1,22.3S11.4,1.6,22.8,1.6s20.7,9.3,20.7,20.7S34.2,43,22.8,43z M22.8,3.2
		c-10.5,0-19.1,8.6-19.1,19.1s8.6,19.1,19.1,19.1s19.1-8.6,19.1-19.1S33.3,3.2,22.8,3.2z"/>
	<g>
		<g>
			<g>
				<path d="M24.7,31.8h-3.8c-0.2,0-0.3,0-0.5-0.2s-0.2-0.3-0.2-0.5l0.6-3.3c-0.6-0.5-1.5-1.6-1.1-3c0.5-1.1,1.6-1.9,3-1.9
					c1.5,0,2.5,0.8,2.8,1.9c0.3,1.5-0.5,2.5-1.1,3l0.6,3.3c0,0.2,0,0.3-0.2,0.5C25.1,31.8,24.9,31.8,24.7,31.8L24.7,31.8z
					 M21.5,30.9h2.4l-0.6-3c0-0.2,0-0.5,0.3-0.6c0,0,1.3-0.6,1-2c-0.2-0.8-0.8-1.3-1.8-1.3s-1.6,0.5-1.8,1.3c-0.3,1.3,1,1.9,1,2
					c0.2,0.2,0.3,0.3,0.3,0.6L21.5,30.9z"/>
			</g>
		</g>
		<g>
			<g>
				<path d="M30.4,19.1h-2.8v-4c0-3-2-5.6-4.8-5.6S18,12.1,18,15.1v4h-2.8c-1.1,0-1.9,0.8-1.9,1.9v12.1c0,1.1,0.8,1.9,1.9,1.9h15.3
					c1.1,0,1.9-0.8,1.9-1.9V21C32.4,19.9,31.6,19.1,30.4,19.1L30.4,19.1z M19.6,15.1c0-2.2,1.3-4,3.2-4s3.2,1.8,3.2,4v4h-6.3v-4
					H19.6z M30.8,33.1c0,0.2-0.2,0.3-0.3,0.3H15.2c-0.2,0-0.3-0.2-0.3-0.3V21c0-0.2,0.2-0.3,0.3-0.3h15.3c0.2,0,0.3,0.2,0.3,0.3
					V33.1z"/>
			</g>
		</g>
	</g>
</g>
</svg>
