<?xml version="1.0" standalone="no"?><!DOCTYPE svg PUBLIC "-//W3C//DTD SVG 1.1//EN" "http://www.w3.org/Graphics/SVG/1.1/DTD/svg11.dtd"><svg class="icon" width="32px" height="32.00px" viewBox="0 0 1024 1024" version="1.1" xmlns="http://www.w3.org/2000/svg"><path d="M160 544v140.8l70.4-19.2V512l-76.8 32zM64 537.6l70.4-38.4V339.2L64 396.8zM153.6 857.6h70.4v-147.2l-70.4 19.2zM256 857.6h102.4v-172.8L256 704zM256 659.2l102.4-25.6V454.4L256 499.2zM256 448l102.4-44.8V172.8L256 249.6zM64 864h70.4v-128l-70.4 12.8zM64 704l70.4-12.8V556.8L64 588.8zM224 268.8l-70.4 57.6v172.8l70.4-38.4zM736 435.2l6.4-217.6-140.8-19.2v224zM601.6 640l134.4 12.8V486.4l-134.4-12.8zM384 396.8l172.8 19.2V192L384 166.4zM908.8 454.4l-6.4-211.2-128-25.6 6.4 224zM384 627.2l172.8 12.8V467.2L384 448zM780.8 652.8l128 6.4V505.6l-128-12.8zM384 857.6l166.4-6.4v-166.4L384 678.4zM601.6 691.2v166.4h140.8l-6.4-160zM780.8 857.6h128V704l-128-6.4z" /></svg>