<?xml version="1.0" standalone="no"?><!DOCTYPE svg PUBLIC "-//W3C//DTD SVG 1.1//EN" "http://www.w3.org/Graphics/SVG/1.1/DTD/svg11.dtd"><svg class="icon" width="16px" height="16.00px" viewBox="0 0 1024 1024" version="1.1" xmlns="http://www.w3.org/2000/svg"><path d="M824 918.256c-88.864 67.728-198.656 105.696-312.016 105.696C229.648 1023.952 0 796.88 0 517.712 0 238.56 229.648 11.472 511.984 11.472c282.32 0 511.968 227.088 511.968 506.24 0 9.44-7.728 17.088-17.28 17.088-9.536 0-17.28-7.648-17.28-17.088C989.392 257.44 775.312 45.648 512 45.648 248.736 45.648 34.56 257.44 34.56 517.712 34.56 778.016 248.736 989.776 512 989.776c84.784 0 167.44-22.896 239.632-64.448-87.296-11.12-219.632-75.728-350.88-206.976C208.688 526.24 159.344 331.92 211.424 279.792c45.2-45.232 100.304-124.192 182.88-21.344 82.592 102.8 41.968 131.52-4.64 178.16-32.64 32.56 35.424 115.008 106.608 186.16 71.2 71.152 153.536 139.12 186.208 106.608 46.64-46.592 75.472-87.232 178.192-4.592 76.384 61.376 52.464 107.552 16.576 145.76a8 8 0 0 1-4.736 5.696c-6.288 6.176-12.704 12.16-19.28 17.984-4.8 4.56-9.488 9.024-13.856 13.392a55.168 55.168 0 0 1-15.36 10.64z" /></svg>