<?xml version="1.0" standalone="no"?><!DOCTYPE svg PUBLIC "-//W3C//DTD SVG 1.1//EN" "http://www.w3.org/Graphics/SVG/1.1/DTD/svg11.dtd"><svg class="icon" width="32px" height="32.00px" viewBox="0 0 1024 1024" version="1.1" xmlns="http://www.w3.org/2000/svg"><path d="M509.866667 10.666667l-119.466667 119.466666h85.333333v298.666667l34.133334 34.133333 38.4-38.4V130.133333h81.066666z" fill="#F0A91F" /><path d="M142.933333 138.666667v209.066666l81.066667-81.066666 4.266667-4.266667 4.266666 4.266667 192 192h34.133334v-29.866667l-187.733334-192-4.266666-8.533333 4.266666-4.266667 81.066667-81.066667-209.066667-4.266666z" fill="#9DCF23" /><path d="M381.866667 138.666667l-89.6 89.6 174.933333 174.933333V138.666667zM232.533333 288l-89.6 89.6v85.333333h260.266667z" fill="#9DCF23" /><path d="M556.8 138.666667v264.533333l170.666667-170.666667-89.6-89.6c0-4.266667-81.066667-4.266667-81.066667-4.266666z" fill="#951B7A" /><path d="M663.466667 138.666667l85.333333 85.333333 4.266667 4.266667-4.266667 4.266666-192 196.266667v34.133333h34.133333l192-192 4.266667-4.266666 4.266667 4.266666 85.333333 85.333334v-213.333334c0-4.266667-213.333333-4.266667-213.333333-4.266666z" fill="#951B7A" /><path d="M787.2 288l-170.666667 170.666667h260.266667v-81.066667z" fill="#951B7A" /><path d="M134.4 392.533333L14.933333 512l119.466667 119.466667v-85.333334h298.666667l34.133333-34.133333-38.4-38.4H134.4v-8.533333z" fill="#9F3487" /><path d="M889.6 392.533333v81.066667h-298.666667L556.8 512l34.133333 34.133333h298.666667v85.333334l119.466667-119.466667zM142.933333 561.066667v85.333333l89.6 89.6 174.933334-174.933333z" fill="#1F1F77" /><path d="M433.066667 561.066667l-192 192-4.266667 4.266666-4.266667-4.266666-81.066666-81.066667v209.066667h209.066666l-81.066666-81.066667-4.266667-4.266667 4.266667-4.266666 192-192v-34.133334l-38.4-4.266666z" fill="#1F1F77" /><path d="M467.2 620.8l-174.933333 174.933333 85.333333 85.333334h85.333333V620.8z" fill="#1F1F77" /><path d="M512 561.066667l-34.133333 34.133333v298.666667h-89.6l123.733333 119.466666 119.466667-119.466666h-85.333334V599.466667c4.266667 0-34.133333-38.4-34.133333-38.4zM554.666667 558.933333V597.333333l192 192 4.266666 4.266667-4.266666 4.266667-81.066667 81.066666h213.333333v-209.066666l-85.333333 85.333333-4.266667 4.266667-4.266666-4.266667-200.533334-196.266667H554.666667z" fill="#9DCF23" /><path d="M610.133333 558.933333l174.933334 174.933334 89.6-89.6v-85.333334zM554.666667 622.933333v260.266667h85.333333l85.333333-85.333333z" fill="#9DCF23" /></svg>