<?xml version="1.0" standalone="no"?><!DOCTYPE svg PUBLIC "-//W3C//DTD SVG 1.1//EN" "http://www.w3.org/Graphics/SVG/1.1/DTD/svg11.dtd"><svg class="icon" width="16px" height="16.00px" viewBox="0 0 1024 1024" version="1.1" xmlns="http://www.w3.org/2000/svg"><path d="M872.96 576c-2.56-48.64-46.08-84.48-94.72-84.48-12.8 0-25.6 2.56-38.4 10.24l-69.12-81.92c20.48-20.48 30.72-46.08 30.72-76.8-2.56-48.64-43.52-89.6-92.16-89.6-7.68-48.64-46.08-89.6-94.72-89.6s-89.6 35.84-94.72 84.48c-48.64 2.56-89.6 38.4-92.16 89.6 0 23.04 7.68 46.08 20.48 61.44l-71.68 92.16c-10.24-2.56-20.48-2.56-30.72-2.56-48.64 0-89.6 35.84-94.72 84.48C94.72 578.56 56.32 614.4 51.2 665.6c-2.56 53.76 35.84 94.72 84.48 99.84H332.8c43.52-2.56 76.8-33.28 84.48-71.68H588.8c10.24 38.4 43.52 69.12 84.48 71.68H870.4c53.76-2.56 92.16-48.64 89.6-102.4-2.56-48.64-40.96-87.04-87.04-87.04z m-266.24-138.24c0-5.12 0-5.12 0 0zM335.36 762.88v-7.68 7.68c0-2.56 0-2.56 0 0z m253.44-84.48h-163.84V665.6c-2.56-48.64-43.52-89.6-92.16-89.6-2.56-33.28-23.04-58.88-48.64-76.8l69.12-81.92c15.36 12.8 33.28 23.04 56.32 23.04h202.24c15.36 0 33.28-7.68 46.08-15.36l69.12 79.36c-23.04 15.36-35.84 38.4-38.4 69.12-48.64 2.56-89.6 38.4-92.16 89.6-7.68 5.12-7.68 7.68-7.68 15.36z m284.16 84.48v-7.68 7.68c0-2.56 0-2.56 0 0z" /></svg>