<?xml version="1.0" standalone="no"?><!DOCTYPE svg PUBLIC "-//W3C//DTD SVG 1.1//EN" "http://www.w3.org/Graphics/SVG/1.1/DTD/svg11.dtd"><svg class="icon" width="16px" height="16.00px" viewBox="0 0 1024 1024" version="1.1" xmlns="http://www.w3.org/2000/svg"><path d="M565.730739 512.020466l382.726751-384.525724c14.842033-14.902408 14.781658-39.040155-0.121773-53.882188-14.933107-14.872732-39.041178-14.781658-53.883211 0.121773l-382.483204 384.251477L129.515772 73.764004c-14.842033-14.933107-38.949081-14.993482-53.883211-0.121773-14.903431 14.842033-14.963807 38.950104-0.121773 53.883211l382.726751 384.495024L75.511811 896.51549c-14.842033 14.903431-14.781658 39.041178 0.121773 53.883211 7.436366 7.405667 17.158798 11.093662 26.880207 11.093662 9.782807 0 19.565615-3.748371 27.001981-11.215436l382.483204-384.251477 382.483204 384.251477c7.436366 7.497765 17.219173 11.215436 27.003004 11.215436 9.721409 0 19.444864-3.687996 26.880207-11.093662 14.902408-14.842033 14.963807-38.949081 0.121773-53.883211L565.730739 512.020466 565.730739 512.020466z" /></svg>