<?xml version="1.0" encoding="utf-8"?>
<!-- Generator: Adobe Illustrator 22.0.0, SVG Export Plug-In . SVG Version: 6.00 Build 0)  -->
<svg version="1.1" id="图层_1" xmlns="http://www.w3.org/2000/svg" xmlns:xlink="http://www.w3.org/1999/xlink" x="0px" y="0px"
	 viewBox="0 0 45 45" style="enable-background:new 0 0 45 45;" xml:space="preserve">
<style type="text/css">
	.st0{fill:none;enable-background:new    ;}
</style>
<path class="st0" d="M0,0"/>
<g>
	<path d="M22,43.2c-11.4,0-20.7-9.3-20.7-20.7C1.3,11.1,10.6,1.8,22,1.8s20.7,9.3,20.7,20.7S33.4,43.2,22,43.2z M22,3.4
		C11.5,3.4,2.9,12,2.9,22.5S11.5,41.6,22,41.6s19.1-8.5,19.1-19.1C41.1,12,32.5,3.4,22,3.4z"/>
	<path d="M34.6,24.4H9.4c-1.2,0-2.1-0.9-2.1-2.1v-4.4c0-1.2,0.9-2.1,2.1-2.1h25.3c1.2,0,2.1,0.9,2.1,2.1v4.5
		C36.7,23.5,35.8,24.4,34.6,24.4z M9.4,17.3c-0.3,0-0.5,0.2-0.5,0.5v4.4c0,0.3,0.2,0.5,0.5,0.5h25.2c0.3,0,0.6-0.2,0.6-0.6v-4.4
		c0-0.3-0.2-0.5-0.5-0.5H9.4V17.3z"/>
	<rect x="14.8" y="19" width="2.4" height="2.1"/>
	<rect x="11" y="19" width="2.4" height="2.1"/>
	<rect x="18.8" y="19" width="14.2" height="2.1"/>
	<rect x="7.2" y="27.1" width="29.5" height="1.6"/>
</g>
</svg>
