<?xml version="1.0" standalone="no"?><!DOCTYPE svg PUBLIC "-//W3C//DTD SVG 1.1//EN" "http://www.w3.org/Graphics/SVG/1.1/DTD/svg11.dtd"><svg class="icon" width="16px" height="16.00px" viewBox="0 0 1024 1024" version="1.1" xmlns="http://www.w3.org/2000/svg"><path d="M755.2 339.2L486.4 608l-153.6-128c-12.8-6.4-25.6-6.4-38.4 6.4-6.4 12.8-6.4 25.6 6.4 38.4l166.4 134.4c6.4 6.4 12.8 6.4 19.2 6.4 6.4 0 19.2 0 25.6-6.4l281.6-281.6c12.8-12.8 12.8-25.6 0-38.4s-32-12.8-38.4 0z"  /><path d="M524.8 19.2C256 19.2 44.8 230.4 44.8 499.2c0 262.4 217.6 480 480 480h19.2c12.8 0 19.2-12.8 19.2-25.6s-6.4-19.2-19.2-25.6h-19.2c-236.8 0-428.8-192-428.8-428.8S288 64 524.8 64 960 256 960 499.2c0 140.8-64 262.4-166.4 339.2-6.4 6.4-12.8 12.8-12.8 19.2 0 12.8 12.8 25.6 25.6 25.6s12.8 0 19.2-6.4c108.8-89.6 179.2-224 179.2-377.6 0-268.8-217.6-480-480-480z"  /></svg>