<?xml version="1.0" encoding="utf-8"?>
<!-- Generator: Adobe Illustrator 21.0.0, SVG Export Plug-In . SVG Version: 6.00 Build 0)  -->
<svg version="1.1" id="图层_1" xmlns="http://www.w3.org/2000/svg" xmlns:xlink="http://www.w3.org/1999/xlink" x="0px" y="0px"
	 viewBox="0 0 45 45" style="enable-background:new 0 0 45 45;" xml:space="preserve">
<style type="text/css">
	.st0{clip-path:url(#SVGID_2_);}
</style>
<g>
	<path d="M22.5,42.6c-11,0-20-9-20-20s9-20,20-20c11,0,20,9,20,20S33.5,42.6,22.5,42.6z M22.5,4.2c-10.2,0-18.4,8.3-18.4,18.4
		S12.3,41,22.5,41c10.2,0,18.4-8.3,18.4-18.4S32.7,4.2,22.5,4.2z"/>
	<g>
		<g>
			<g>
				<defs>
					<rect id="SVGID_1_" x="10.8" y="12.3" width="23.4" height="20.6"/>
				</defs>
				<clipPath id="SVGID_2_">
					<use xlink:href="#SVGID_1_"  style="overflow:visible;"/>
				</clipPath>
				<path class="st0" d="M33.4,12.3H11.6c-0.2,0-0.4,0.1-0.6,0.2c-0.2,0.2-0.2,0.4-0.2,0.6v14.3c0,0.2,0.1,0.4,0.2,0.6
					c0.2,0.2,0.4,0.2,0.6,0.2h3.3c0.3,0,0.5-0.1,0.6-0.3l4.4-5.5l2,1.7c0.3,0.3,0.8,0.3,1.1-0.1l3.9-4.3c0.4,0.3,0.8,0.4,1.3,0.4
					c1.4,0,2.5-1.1,2.5-2.5c0-1.4-1.1-2.5-2.5-2.5s-2.5,1.1-2.5,2.5c0,0.4,0.1,0.7,0.2,0.9l-3.5,3.8l-2.1-1.7
					c-0.2-0.2-0.4-0.2-0.6-0.2c-0.2,0-0.4,0.1-0.5,0.3l-4.7,5.8h-2.2V13.9h20.2v12.7H21.7c-0.2,0-0.4,0.1-0.6,0.2
					c-0.2,0.2-0.2,0.4-0.2,0.6v3.9h-4.6c-0.2,0-0.4,0.1-0.6,0.2c-0.2,0.2-0.2,0.4-0.2,0.6c0,0.2,0.1,0.4,0.2,0.6
					c0.2,0.2,0.4,0.2,0.6,0.2h10.6c0.2,0,0.4-0.1,0.6-0.2c0.2-0.2,0.2-0.4,0.2-0.6c0-0.2-0.1-0.4-0.2-0.6c-0.2-0.2-0.4-0.2-0.6-0.2
					h-4.4v-3.1h10.9c0.2,0,0.4-0.1,0.6-0.2c0.2-0.2,0.2-0.4,0.2-0.6V13.1C34.2,12.7,33.8,12.3,33.4,12.3 M28.3,16.6
					c0.5,0,0.9,0.4,0.9,0.9c0,0.5-0.4,0.9-0.9,0.9c-0.3,0-0.5-0.1-0.7-0.3c-0.2-0.2-0.3-0.4-0.3-0.7C27.3,17,27.8,16.6,28.3,16.6"/>
			</g>
		</g>
	</g>
</g>
</svg>
