<?xml version="1.0" standalone="no"?><!DOCTYPE svg PUBLIC "-//W3C//DTD SVG 1.1//EN" "http://www.w3.org/Graphics/SVG/1.1/DTD/svg11.dtd"><svg class="icon" width="16px" height="16.00px" viewBox="0 0 1024 1024" version="1.1" xmlns="http://www.w3.org/2000/svg"><path d="M841.371934 192.338387l-182.693734 0L658.6782 128.833643c0-27.392428-22.280894-49.67612-49.67612-49.67612l-195.385529 0c-27.388431 0-49.669724 22.283892-49.669724 49.67612l0 63.504744L181.257491 192.338387c-27.394427 0-49.67572 22.283892-49.67572 49.673122l0 77.272409c0 27.391429 22.281293 49.672722 49.67572 49.672722l30.549687 0 0 459.480872c0 63.915465 51.995147 115.910013 115.904617 115.910013l367.201637 0c63.914466 0 115.909214-51.994548 115.909214-115.910013L810.822646 368.956639l30.549288 0c27.38943 0 49.67612-22.281293 49.67612-49.672722l0-77.272409C891.048053 214.622278 868.761164 192.338387 841.371934 192.338387zM419.140207 134.3539l184.344614 0 0 57.984487-184.344614 0L419.140207 134.3539zM755.624271 828.442508c0 33.479301-27.232536 60.711638-60.710638 60.711638L327.711995 889.154145c-33.478302 0-60.716234-27.232336-60.716234-60.711638L266.995761 368.956639l488.62851 0L755.624271 828.442508zM835.848479 313.763261 186.769754 313.763261l0-66.231495 219.231361 0c2.480718 0.382741 5.026992 0.584604 7.615237 0.584604l195.385529 0c2.590244 0 5.135518-0.201863 7.621832-0.584604l219.224766 0L835.848479 313.763261zM512.417765 804.435785c15.237669 0 27.594291-12.351626 27.594291-27.594291L540.012056 465.546551c0-15.240067-12.356622-27.596689-27.594291-27.596689-15.242665 0-27.598688 12.356622-27.598688 27.596689l0 311.295142C484.819077 792.084159 497.175099 804.435785 512.417765 804.435785zM655.366446 804.435785c15.242665 0 27.599288-12.351626 27.599288-27.594291L682.965733 465.546551c0-15.240067-12.356622-27.596689-27.599288-27.596689-15.242665 0-27.593292 12.356622-27.593292 27.596689l0 311.295142C627.773154 792.084159 640.12378 804.435785 655.366446 804.435785zM369.464087 804.435785c15.242665 0 27.594291-12.351626 27.594291-27.594291L397.058378 465.546551c0-15.240067-12.351626-27.596689-27.594291-27.596689-15.242066 0-27.593292 12.356622-27.593292 27.596689l0 311.295142C341.870796 792.084159 354.221822 804.435785 369.464087 804.435785z" /></svg>