<?xml version="1.0" encoding="utf-8"?>
<!-- Generator: Adobe Illustrator 21.0.0, SVG Export Plug-In . SVG Version: 6.00 Build 0)  -->
<svg version="1.1" id="图层_1" xmlns="http://www.w3.org/2000/svg" xmlns:xlink="http://www.w3.org/1999/xlink" x="0px" y="0px"
	 viewBox="0 0 45 45" style="enable-background:new 0 0 45 45;" xml:space="preserve">
<style type="text/css">
	.st0{fill:none;enable-background:new    ;}
</style>
<path class="st0" d="M1.2,0.2"/>
<g>
	<path d="M22.3,42.3c-11.2,0-20.2-9.1-20.2-20.2S11.1,1.9,22.3,1.9c11.2,0,20.2,9.1,20.2,20.2S33.5,42.3,22.3,42.3z M22.3,3.4
		C12,3.4,3.6,11.8,3.6,22.1S12,40.8,22.3,40.8c10.3,0,18.7-8.4,18.7-18.7S32.6,3.4,22.3,3.4z"/>
	<path d="M31.3,33.7h-18c-1.6,0-2.9-1.3-2.9-2.9V13.4c0-1.6,1.3-2.9,2.9-2.9h18c1.6,0,2.9,1.3,2.9,2.9v17.4
		C34.2,32.4,32.9,33.7,31.3,33.7z M13.3,12.1c-0.7,0-1.3,0.6-1.3,1.3v17.4c0,0.7,0.6,1.3,1.3,1.3h18c0.7,0,1.3-0.6,1.3-1.3V13.4
		c0-0.7-0.6-1.3-1.3-1.3H13.3z"/>
	<rect x="11.9" y="16.8" width="21.3" height="1.6"/>
	<circle cx="14.5" cy="14.4" r="1.3"/>
</g>
</svg>
