<?xml version="1.0" standalone="no"?><!DOCTYPE svg PUBLIC "-//W3C//DTD SVG 1.1//EN" "http://www.w3.org/Graphics/SVG/1.1/DTD/svg11.dtd"><svg class="icon" width="32px" height="32.00px" viewBox="0 0 1024 1024" version="1.1" xmlns="http://www.w3.org/2000/svg"><path d="M256 204.8v-6.4c-76.8 64-128 166.4-128 275.2 0 38.4 6.4 76.8 12.8 108.8 19.2-12.8 44.8-19.2 64-32 0-57.6 44.8-96 96-96 38.4 0 70.4 19.2 89.6 51.2 44.8 0 83.2-6.4 121.6 0C454.4 384 371.2 281.6 256 204.8z"  /><path d="M371.2 550.4c0-38.4-25.6-64-64-64s-64 25.6-64 64 25.6 64 64 64c32 0 64-25.6 64-64z"  /><path d="M486.4 838.4c32 0 70.4-6.4 102.4-12.8 0-96-19.2-192-57.6-281.6h-128v12.8c0 57.6-44.8 96-96 96-44.8 0-76.8-25.6-89.6-64-25.6 6.4-44.8 19.2-64 25.6 57.6 128 185.6 224 332.8 224zM844.8 512c0-12.8 6.4-25.6 6.4-38.4 0-19.2 0-38.4-6.4-57.6-51.2-6.4-96-19.2-140.8-38.4-19.2 25.6-44.8 38.4-76.8 38.4-57.6 6.4-102.4-38.4-102.4-96 0-12.8 0-25.6 6.4-32-64-44.8-115.2-96-166.4-153.6-32 6.4-57.6 25.6-83.2 44.8 121.6 83.2 211.2 198.4 275.2 326.4 70.4 6.4 140.8 19.2 204.8 44.8 12.8-25.6 38.4-38.4 70.4-38.4h12.8z"  /><path d="M627.2 384c38.4 0 64-25.6 64-64s-25.6-64-64-64-64 25.6-64 64 25.6 64 64 64zM832 544c-38.4 0-64 25.6-64 64 0 32 6.4 38.4 25.6 64 19.2-32 44.8-83.2 51.2-128H832z"  /><path d="M838.4 377.6c-38.4-153.6-179.2-268.8-352-268.8-32 0-57.6 6.4-83.2 12.8 44.8 51.2 89.6 96 147.2 134.4 19.2-19.2 44.8-38.4 76.8-38.4 57.6 0 96 44.8 96 96 0 6.4 0 19.2-6.4 25.6 38.4 19.2 83.2 32 121.6 38.4zM736 608c0-12.8 0-19.2 6.4-25.6-57.6-19.2-115.2-32-172.8-38.4 32 83.2 51.2 172.8 51.2 268.8 64-25.6 115.2-64 153.6-121.6-25.6-19.2-38.4-51.2-38.4-83.2z"  /></svg>