<?xml version="1.0" encoding="utf-8"?>
<!-- Generator: Adobe Illustrator 21.0.0, SVG Export Plug-In . SVG Version: 6.00 Build 0)  -->
<svg version="1.1" id="图层_1" xmlns="http://www.w3.org/2000/svg" xmlns:xlink="http://www.w3.org/1999/xlink" x="0px" y="0px"
	 viewBox="0 0 45 45" style="enable-background:new 0 0 45 45;" xml:space="preserve">
<style type="text/css">
	.st0{fill:none;enable-background:new    ;}
	.st1{fill:none;stroke:#000000;stroke-width:3;stroke-miterlimit:10;}
</style>
<path class="st0" d="M265.3,79.7"/>
<g>
	<path d="M22,42.9c-11,0-20-9-20-20s9-20,20-20c11,0,20,9,20,20S33,42.9,22,42.9z M22,4.5c-10.2,0-18.4,8.3-18.4,18.4
		S11.8,41.3,22,41.3c10.2,0,18.4-8.3,18.4-18.4S32.2,4.5,22,4.5z"/>
	<g>
		<path d="M22.3,36.6L9,29.7v-14l12.7-6.5l12.7,6.5L35,30.1L22.3,36.6z M10.6,28.7l11.7,6.1l11.1-5.7l-0.5-12.6l-11.2-5.7l-11.2,5.7
			V28.7z"/>
		<path class="st1" d="M9.8,16.1"/>
		<rect x="21.5" y="21.2" width="1.6" height="14.5"/>
		<polygon points="22.3,22.6 9.5,16.8 10.1,15.4 22.2,20.8 33.3,15.4 34,16.8 		"/>
	</g>
</g>
</svg>
