<?xml version="1.0" standalone="no"?><!DOCTYPE svg PUBLIC "-//W3C//DTD SVG 1.1//EN" "http://www.w3.org/Graphics/SVG/1.1/DTD/svg11.dtd"><svg class="icon" width="16px" height="16.00px" viewBox="0 0 1024 1024" version="1.1" xmlns="http://www.w3.org/2000/svg"><path d="M940.8 563.2l-377.6 172.8c-38.4 12.8-51.2 12.8-83.2 0L102.4 563.2c-19.2-12.8-25.6-51.2-25.6-70.4 25.6 12.8 57.6 32 57.6 32l384 179.2 384-179.2s32-19.2 57.6-32c6.4 19.2 0 64-19.2 70.4z m0-179.2L563.2 556.8c-38.4 12.8-51.2 12.8-83.2 0L102.4 384c-32-12.8-25.6-64 0-83.2l377.6-198.4c32-19.2 51.2-19.2 83.2 0l377.6 198.4c25.6 12.8 25.6 70.4 0 83.2z m-422.4 492.8l384-179.2s32-19.2 57.6-32c0 19.2-6.4 64-25.6 70.4l-377.6 172.8c-38.4 12.8-51.2 12.8-83.2 0l-377.6-172.8c-19.2-12.8-25.6-51.2-25.6-70.4 25.6 12.8 57.6 32 57.6 32l390.4 179.2z" /></svg>