<?xml version="1.0" standalone="no"?><!DOCTYPE svg PUBLIC "-//W3C//DTD SVG 1.1//EN" "http://www.w3.org/Graphics/SVG/1.1/DTD/svg11.dtd"><svg class="icon" width="16px" height="16.00px" viewBox="0 0 1024 1024" version="1.1" xmlns="http://www.w3.org/2000/svg"><path d="M376.184755 718.841905c12.428054 0.87288 25.120121-2.876514 35.275411-11.265578l3.447519-1.103124L307.003116 598.572728l-1.100054 3.440355c-8.395204 10.154267-12.148691 22.850427-11.271718 35.288714L256.352529 757.12379 376.184755 718.841905 376.184755 718.841905 376.184755 718.841905z"  /><path d="M766.849292 281.922904l-35.294854-35.294854c-19.49296-19.49296-51.095725-19.49296-70.584592 0l-34.195823 34.18866 105.883539 105.883539 34.19173-34.18866C786.343275 333.016583 786.343275 301.411771 766.849292 281.922904L766.849292 281.922904 766.849292 281.922904z"  /><path d="M696.258561 423.101297 590.375022 317.218782 344.412121 563.176566 450.296683 669.067268 696.258561 423.101297 696.258561 423.101297Z"  /></svg>