<?xml version="1.0" standalone="no"?><!DOCTYPE svg PUBLIC "-//W3C//DTD SVG 1.1//EN" "http://www.w3.org/Graphics/SVG/1.1/DTD/svg11.dtd"><svg class="icon" width="16px" height="13.20px" viewBox="0 0 1241 1024" version="1.1" xmlns="http://www.w3.org/2000/svg"><path d="M597.333333 77.575758L302.545455 356.848485s-7.757576 15.515152-7.757576 23.272727c0 7.757576 0 15.515152 7.757576 23.272727 15.515152 15.515152 38.787879 15.515152 46.545454 0l224.969697-217.212121v550.787879c0 23.272727 15.515152 38.787879 38.787879 38.787879s38.787879-15.515152 38.787879-38.787879V186.181818l224.969697 217.212121c15.515152 15.515152 38.787879 15.515152 46.545454 0 0 0 7.757576-15.515152 7.757576-23.272727s0-15.515152-7.757576-23.272727L643.878788 77.575758c0-7.757576-15.515152-7.757576-23.272727-7.757576-7.757576 0-15.515152 0-23.272728 7.757576z"  /><path d="M1132.606061 713.69697c-23.272727 0-38.787879 15.515152-38.787879 38.787878V853.333333c0 15.515152-7.757576 23.272727-23.272727 23.272728H162.909091c-15.515152 0-23.272727-7.757576-23.272727-23.272728V744.727273c0-23.272727-15.515152-38.787879-38.787879-38.787879s-31.030303 23.272727-31.030303 38.787879V853.333333c0 46.545455 46.545455 93.090909 93.090909 93.090909h907.636364c46.545455 0 93.090909-46.545455 93.090909-93.090909V744.727273c0-15.515152-15.515152-31.030303-31.030303-31.030303z"  /></svg>