<?xml version="1.0" standalone="no"?><!DOCTYPE svg PUBLIC "-//W3C//DTD SVG 1.1//EN" "http://www.w3.org/Graphics/SVG/1.1/DTD/svg11.dtd"><svg class="icon" width="16px" height="16.00px" viewBox="0 0 1024 1024" version="1.1" xmlns="http://www.w3.org/2000/svg"><path d="M627.2 473.6c-38.4 0-70.4 25.6-70.4 64 0 32 32 64 70.4 64 38.4 0 70.4-25.6 70.4-64-6.4-38.4-32-64-70.4-64zM371.2 684.8c-38.4 0-70.4 25.6-70.4 64 0 32 32 64 70.4 64 38.4 0 70.4-25.6 70.4-64-6.4-38.4-32-64-70.4-64z"  /><path d="M851.2 89.6H172.8C108.8 89.6 57.6 134.4 57.6 192v633.6c0 57.6 51.2 102.4 115.2 102.4h678.4c64 0 115.2-44.8 115.2-108.8V192c0-57.6-51.2-102.4-115.2-102.4zM793.6 768H480c-12.8 44.8-57.6 76.8-108.8 76.8s-96-32-108.8-76.8h-32c-12.8 0-25.6-12.8-25.6-25.6s12.8-25.6 25.6-25.6h32c12.8-44.8 57.6-76.8 108.8-76.8s96 32 108.8 76.8h313.6c12.8 0 25.6 12.8 25.6 25.6 6.4 19.2-6.4 25.6-25.6 25.6z m0-204.8h-57.6c-12.8 44.8-57.6 76.8-108.8 76.8s-96-32-108.8-76.8H230.4c-12.8 0-25.6-12.8-25.6-25.6-6.4-19.2 6.4-25.6 25.6-25.6h288c12.8-44.8 57.6-76.8 108.8-76.8s96 32 108.8 76.8h57.6c12.8 0 25.6 12.8 25.6 25.6 6.4 12.8-6.4 25.6-25.6 25.6z m0-211.2H480c-12.8 44.8-57.6 76.8-108.8 76.8s-96-32-108.8-76.8h-32c-12.8 0-25.6-12.8-25.6-25.6s12.8-25.6 25.6-25.6h32c12.8-44.8 57.6-76.8 108.8-76.8s96 32 108.8 76.8h313.6c12.8 0 25.6 12.8 25.6 25.6 6.4 12.8-6.4 25.6-25.6 25.6z"  /><path d="M371.2 262.4c-38.4 0-70.4 25.6-70.4 64 0 32 32 64 70.4 64 38.4 0 70.4-25.6 70.4-64-6.4-38.4-32-64-70.4-64z"  /></svg>