<?xml version="1.0" encoding="utf-8"?>
<!-- Generator: Adobe Illustrator 21.0.0, SVG Export Plug-In . SVG Version: 6.00 Build 0)  -->
<svg version="1.1" id="图层_1" xmlns="http://www.w3.org/2000/svg" xmlns:xlink="http://www.w3.org/1999/xlink" x="0px" y="0px"
	 viewBox="0 0 45 45" style="enable-background:new 0 0 45 45;" xml:space="preserve">
<style type="text/css">
	.st0{fill:none;enable-background:new    ;}
	.st1{fill:none;stroke:#000000;stroke-width:3;stroke-linecap:round;stroke-miterlimit:10;}
</style>
<path class="st0" d="M199,54"/>
<g>
	<path d="M22.5,42.7c-11.2,0-20.3-9.1-20.3-20.3S11.3,2.1,22.5,2.1c11.2,0,20.3,9.1,20.3,20.3S33.7,42.7,22.5,42.7z M22.5,3.7
		c-10.3,0-18.7,8.4-18.7,18.7s8.4,18.7,18.7,18.7c10.3,0,18.7-8.4,18.7-18.7S32.8,3.7,22.5,3.7z"/>
	<path class="st1" d="M22.5,22.4"/>
	<g>
		<path d="M7.4,24C7.4,24,7.4,24,7.4,24c-0.5,0-0.8-0.4-0.8-0.8c0.7-8.9,7.6-15.8,15.8-15.8c8.2,0,15.1,6.9,15.8,15.7
			c0,0.4-0.3,0.8-0.7,0.9c-0.4,0-0.8-0.3-0.9-0.7c-0.7-8-6.9-14.2-14.3-14.2c-7.4,0-13.7,6.3-14.3,14.4C8.2,23.7,7.9,24,7.4,24z"/>
		<path d="M22.5,37.5c-2.8,0-5.2-2.3-5.2-5.2s2.3-5.2,5.2-5.2c2.8,0,5.2,2.3,5.2,5.2S25.3,37.5,22.5,37.5z M22.5,28.7
			c-2,0-3.6,1.6-3.6,3.6s1.6,3.6,3.6,3.6c2,0,3.6-1.6,3.6-3.6S24.5,28.7,22.5,28.7z"/>
		<path d="M25,29L25,29c-0.3-0.3-0.3-0.7-0.1-1l6.5-7.3c0.3-0.3,0.7-0.3,1-0.1l0,0c0.3,0.3,0.3,0.7,0.1,1L26,28.9
			C25.7,29.2,25.2,29.2,25,29z"/>
	</g>
</g>
</svg>
