<?xml version="1.0" standalone="no"?><!DOCTYPE svg PUBLIC "-//W3C//DTD SVG 1.1//EN" "http://www.w3.org/Graphics/SVG/1.1/DTD/svg11.dtd"><svg class="icon" width="16px" height="13.18px" viewBox="0 0 1243 1024" version="1.1" xmlns="http://www.w3.org/2000/svg"><path d="M598.4 771.2c7.199 7.199 14.4 7.199 21.599 7.199s21.599 0 21.599-7.199l280.799-280.801c7.201-7.199 7.201-14.4 7.201-21.601s-7.201-21.599-7.201-21.599c-14.4-14.4-36.001-14.4-50.399 0l-223.199 216v-554.399c0-21.601-14.4-36.001-36.001-36.001s-36.001 14.4-36.001 36.001v554.399l-223.199-216c-14.4-14.4-36.001-14.4-50.401 0-7.199 7.199-7.199 14.4-7.199 21.599 0 7.201 7.199 21.601 7.199 21.601l295.199 280.799z"  /><path d="M1131.2 713.6c-21.601 0-36.001 14.4-36.001 36.001v108.001c0 14.4-7.201 21.599-21.601 21.599h-907.2c-14.4 0-21.599-7.199-21.599-21.599v-108.001c0-21.599-14.4-36.001-36.001-36.001s-36.001 14.4-36.001 36.001v108.001c0 50.399 43.2 93.599 93.599 93.599h907.2c50.399 0 93.601-43.2 93.601-93.599v-108.001c0-21.599-14.4-36.001-36.001-36.001z"  /></svg>