<?xml version="1.0" encoding="utf-8"?>
<!-- Generator: Adobe Illustrator 21.0.0, SVG Export Plug-In . SVG Version: 6.00 Build 0)  -->
<svg version="1.1" id="图层_1" xmlns="http://www.w3.org/2000/svg" xmlns:xlink="http://www.w3.org/1999/xlink" x="0px" y="0px"
	 viewBox="0 0 45 45" style="enable-background:new 0 0 45 45;" xml:space="preserve">
<style type="text/css">
	.st0{fill:none;enable-background:new    ;}
	.st1{fill:#FFFFFF;}
</style>
<path class="st0" d="M1.5,1.5"/>
<g>
	<path d="M22,43C10.7,43,1.4,33.8,1.4,22.5C1.4,11.2,10.7,2,22,2c11.3,0,20.5,9.2,20.5,20.5C42.5,33.8,33.3,43,22,43z M22,3.6
		C11.5,3.6,3,12.1,3,22.5C3,32.9,11.5,41.4,22,41.4c10.4,0,18.9-8.5,18.9-18.9C40.9,12.1,32.4,3.6,22,3.6z"/>
	<path d="M34.5,30.7H9.4c-1.2,0-2.1-0.9-2.1-2.1v-4.4c0-1.2,0.9-2.1,2.1-2.1h25.1c1.2,0,2.1,0.9,2.1,2.1v4.4
		C36.6,29.8,35.7,30.7,34.5,30.7z M9.4,23.7c-0.3,0-0.5,0.2-0.5,0.5v4.4c0,0.3,0.2,0.5,0.5,0.5h25.1c0.3,0,0.5-0.2,0.5-0.5v-4.4
		c0-0.3-0.2-0.5-0.5-0.5H9.4z"/>
	<rect x="14.8" y="25.4" width="2.4" height="2.1"/>
	<rect x="11" y="25.4" width="2.4" height="2.1"/>
	<rect x="18.8" y="25.4" width="14.1" height="2.1"/>
	<path d="M10.5,21c-1.8,0-3.3-1.5-3.3-3.3s1.5-3.3,3.3-3.3s3.3,1.5,3.3,3.3S12.3,21,10.5,21z M10.5,15.7c-1.1,0-2,0.9-2,2s0.9,2,2,2
		s2-0.9,2-2S11.6,15.7,10.5,15.7z"/>
	<g>
		<rect x="15.8" y="17.2" class="st1" width="19.2" height="0.5"/>
		<rect x="15" y="16.4" width="20.8" height="2.1"/>
	</g>
</g>
</svg>
