<?xml version="1.0" encoding="utf-8"?>
<!-- Generator: Adobe Illustrator 21.0.0, SVG Export Plug-In . SVG Version: 6.00 Build 0)  -->
<svg version="1.1" id="图层_1" xmlns="http://www.w3.org/2000/svg" xmlns:xlink="http://www.w3.org/1999/xlink" x="0px" y="0px"
	 viewBox="0 0 45 45" style="enable-background:new 0 0 45 45;" xml:space="preserve">
<style type="text/css">
	.st0{fill:none;enable-background:new    ;}
</style>
<path class="st0" d="M0,0"/>
<g>
	<path d="M23.1,43.1C11.8,43.1,2.6,34,2.6,22.7c0-11.3,9.2-20.4,20.4-20.4c11.3,0,20.4,9.2,20.4,20.4C43.5,34,34.3,43.1,23.1,43.1z
		 M23.1,3.9c-10.4,0-18.8,8.5-18.8,18.8c0,10.4,8.5,18.8,18.8,18.8c10.4,0,18.8-8.5,18.8-18.8C41.9,12.3,33.5,3.9,23.1,3.9z"/>
	<g>
		<path d="M28.6,21.2H17.5V10.5h11.1V21.2z M19.1,19.6h8v-7.4h-8V19.6z"/>
		<rect x="22.3" y="20.1" width="1.6" height="9.8"/>
		<rect x="14" y="25.4" width="1.6" height="4.8"/>
		<rect x="30.5" y="25.4" width="1.6" height="4.8"/>
		<rect x="14.6" y="25.4" width="17.5" height="1.6"/>
		<path d="M25.6,34.6h-5v-4.9h5V34.6z M21.6,33.5h2.9v-2.8h-2.9V33.5z"/>
		<path d="M33.7,34.4h-5v-4.9h5V34.4z M29.8,33.4h2.9v-2.8h-2.9V33.4z"/>
		<path d="M17.5,34.4h-5v-4.9h5V34.4z M13.5,33.4h2.9v-2.8h-2.9V33.4z"/>
	</g>
</g>
</svg>
