<?xml version="1.0" standalone="no"?><!DOCTYPE svg PUBLIC "-//W3C//DTD SVG 1.1//EN" "http://www.w3.org/Graphics/SVG/1.1/DTD/svg11.dtd"><svg class="icon" width="16px" height="16.00px" viewBox="0 0 1024 1024" version="1.1" xmlns="http://www.w3.org/2000/svg"><path d="M428.8 217.6zM940.8 857.6c-6.4-6.4-12.8-6.4-19.2-12.8 0 0-6.4 0-6.4-6.4-6.4 0-6.4-6.4-12.8-6.4s-6.4-6.4-12.8-12.8-6.4-12.8-12.8-19.2c0-6.4-6.4-12.8-6.4-25.6s-6.4-19.2-6.4-32c0 6.4-6.4 6.4-6.4 12.8v25.6c0 6.4 6.4 25.6 12.8 38.4 0 0 0 6.4 6.4 6.4 6.4 6.4 6.4 6.4 12.8 6.4 19.2 0 25.6 12.8 38.4 19.2l6.4 6.4V876.8c-6.4 6.4-19.2 19.2-64 32-6.4 0-6.4 0-12.8 6.4-6.4 0-12.8 6.4-12.8 6.4-6.4 6.4-19.2 6.4-19.2 12.8-6.4 0-12.8 6.4-19.2 12.8 0 0-6.4 0-6.4 6.4-6.4 6.4-19.2 12.8-25.6 19.2-12.8 12.8-25.6 19.2-51.2 19.2-12.8 0-19.2 0-25.6-6.4-6.4 0-6.4-6.4-12.8-6.4v-6.4c-6.4-6.4-6.4-12.8-6.4-19.2v-32c0-19.2 6.4-38.4 6.4-57.6 0-25.6-6.4-57.6-6.4-57.6-6.4-6.4-6.4-19.2-6.4-25.6v-6.4-25.6s0-25.6 12.8-25.6h12.8l6.4 6.4 6.4 6.4v6.4c0 6.4 6.4 12.8 6.4 19.2 0 6.4 6.4 6.4 6.4 6.4s6.4 0 6.4 6.4c6.4 0 6.4 6.4 12.8 6.4h12.8c12.8 0 25.6 0 32-6.4 6.4 0 6.4-6.4 12.8-6.4l12.8-12.8c6.4-6.4 12.8-12.8 12.8-19.2 6.4-6.4 6.4-6.4 12.8-6.4h6.4c6.4 0 6.4-6.4 12.8-12.8s6.4-19.2 6.4-32v-51.2c-6.4-32-19.2-70.4-32-108.8-19.2-38.4-38.4-70.4-57.6-96-38.4-38.4-64-83.2-76.8-121.6-12.8-44.8-19.2-83.2-19.2-121.6 0-25.6-6.4-51.2-19.2-83.2-12.8-32-32-51.2-51.2-70.4C588.8 19.2 576 12.8 556.8 6.4S512 0 492.8 0c-25.6 0-44.8 6.4-57.6 12.8-32 12.8-51.2 38.4-64 57.6-6.4 25.6-12.8 51.2-12.8 89.6 0 76.8 6.4 134.4 6.4 179.2 0 12.8-25.6 51.2-64 108.8-12.8 6.4-19.2 19.2-25.6 32s-12.8 19.2-19.2 32-6.4 25.6-12.8 44.8c-6.4 19.2-12.8 32-19.2 38.4 0 6.4-6.4 12.8-12.8 25.6 0 12.8-6.4 19.2-12.8 25.6 0 12.8-6.4 19.2-6.4 32v19.2c0 6.4 6.4 12.8 6.4 6.4h32c6.4 0 6.4 6.4 12.8 6.4h6.4l19.2 19.2c12.8 12.8 38.4 51.2 64 83.2 6.4 6.4 6.4 12.8 12.8 12.8 6.4 12.8 19.2 25.6 25.6 38.4 6.4 6.4 6.4 12.8 12.8 19.2v12.8c0 6.4 6.4 12.8 6.4 19.2 6.4 19.2 6.4 32 6.4 32 0 6.4 0 44.8-57.6 44.8s-89.6-19.2-160-32c-76.8-12.8-76.8-12.8-83.2-25.6-6.4-6.4 6.4-25.6 19.2-51.2v-12.8-6.4-12.8s0-6.4-6.4-12.8c0-6.4-6.4-6.4-6.4-12.8-6.4-6.4-6.4-12.8-6.4-19.2v-12.8l6.4-6.4h32c12.8 0 25.6 0 32-6.4 6.4 0 6.4-6.4 6.4-6.4 12.8-6.4 12.8-19.2 19.2-32v-19.2c0 12.8 0 25.6-6.4 32-6.4 6.4-12.8 12.8-25.6 19.2-6.4 6.4-19.2 6.4-32 6.4-19.2 0-25.6 6.4-32 6.4-6.4 6.4-6.4 6.4-6.4 12.8v19.2c0 6.4 6.4 12.8 6.4 25.6v25.6c0 6.4-6.4 12.8-12.8 32s-6.4 32-6.4 38.4c0 6.4 6.4 6.4 12.8 12.8s12.8 6.4 19.2 6.4 12.8 6.4 25.6 6.4c6.4 0 19.2 0 25.6 6.4 12.8 0 19.2 6.4 32 6.4 25.6 6.4 51.2 12.8 83.2 25.6s51.2 19.2 64 19.2c12.8 0 19.2 0 32-6.4s19.2-12.8 25.6-19.2 19.2-12.8 32-19.2c12.8-6.4 25.6-6.4 44.8-6.4h140.8c12.8 0 19.2 0 25.6 6.4 6.4 6.4 12.8 6.4 12.8 12.8s6.4 6.4 6.4 12.8c6.4 6.4 12.8 12.8 19.2 12.8 6.4 6.4 25.6 6.4 44.8 6.4 19.2 0 32-6.4 38.4-12.8 12.8-12.8 25.6-25.6 44.8-38.4s32-25.6 51.2-32c0 0 6.4-6.4 12.8-6.4 6.4-6.4 12.8-6.4 19.2-6.4s12.8-6.4 19.2-6.4 12.8-6.4 19.2-12.8l12.8-12.8c6.4-6.4 6.4-6.4 6.4-12.8v-12.8c0-6.4 0-6.4-6.4-12.8zM633.6 307.2s6.4 0 0 0h6.4l6.4 6.4c6.4 6.4 0 6.4 6.4 6.4h12.8s0 6.4 6.4 6.4v12.8c0 6.4-6.4 6.4-6.4 6.4-6.4 0-12.8-6.4-19.2-19.2-19.2-6.4-19.2-12.8-12.8-19.2zM563.2 83.2s0-6.4 0 0c6.4-6.4 6.4-12.8 6.4-12.8V64s0-6.4 6.4-6.4c0 0 6.4 6.4 12.8 6.4l6.4 6.4s6.4 0 6.4 6.4c0 0 0 6.4-6.4 6.4h-6.4-6.4s-6.4 0-6.4 6.4l-6.4 6.4h-6.4c-6.4-6.4-6.4-6.4 0-12.8 0 6.4 0 0 0 0zM288 512l6.4-6.4v-6.4-6.4h6.4v12.8l-6.4 6.4c-6.4 0-6.4 6.4-6.4 6.4-6.4 0-6.4-6.4 0-6.4z m364.8 403.2c-6.4 19.2-6.4 38.4-6.4 44.8-6.4 0-12.8-6.4-12.8-6.4 0-6.4 0-12.8 6.4-19.2 6.4-25.6 12.8-44.8 12.8-51.2 0-19.2 0-25.6-6.4-32-6.4 0-12.8 0-19.2 19.2-19.2 25.6-51.2 44.8-102.4 51.2-44.8 6.4-76.8 0-96-19.2h-12.8l-6.4-6.4v6.4s0 6.4 6.4 6.4 6.4 6.4 6.4 6.4c12.8 25.6 12.8 44.8-6.4 51.2 0-19.2 0-32-6.4-38.4 0-6.4-6.4-19.2-12.8-32s-12.8-19.2-19.2-25.6c12.8 0 19.2-6.4 25.6-12.8 6.4-6.4 6.4-12.8 6.4-25.6 0-6.4-6.4-19.2-12.8-19.2 0-6.4-12.8-19.2-44.8-44.8s-51.2-44.8-57.6-51.2l-12.8-12.8-12.8-12.8c-25.6-38.4-25.6-70.4-12.8-96v44.8c0 25.6 6.4 44.8 19.2 51.2 6.4 6.4 12.8 6.4 19.2 0 0 0 6.4-12.8 0-32s0-32 0-38.4c0-19.2 12.8-51.2 25.6-83.2s25.6-51.2 38.4-51.2c-6.4-19.2-6.4-25.6-6.4-38.4 0-12.8 6.4-25.6 12.8-32l19.2-38.4c6.4-12.8 6.4-25.6 6.4-32v-6.4c0-6.4 6.4 0 12.8 12.8 12.8 25.6 25.6 38.4 38.4 44.8 6.4 6.4 19.2 6.4 25.6 0 12.8-6.4 25.6-12.8 44.8-25.6 12.8-12.8 25.6-19.2 38.4-25.6h32C576 326.4 569.6 320 569.6 320h-6.4c-12.8 6.4-12.8 6.4-19.2 12.8h-6.4c-12.8 12.8-25.6 19.2-44.8 25.6H473.6 454.4 448c-12.8-6.4-19.2-12.8-19.2-12.8l-12.8-12.8h57.6c6.4 0 19.2-6.4 38.4-12.8h6.4s57.6-25.6 64-32v-6.4s0-6.4-6.4-6.4h-6.4s-6.4 0-6.4 6.4c0 0-6.4 6.4-25.6 12.8h-6.4c-6.4 0-12.8 6.4-19.2 6.4 0 12.8-6.4 12.8-6.4 12.8h-6.4c-6.4 6.4-12.8 6.4-19.2 6.4h-25.6s-12.8 0-19.2-6.4h-19.2s-6.4-6.4-6.4-12.8c-6.4 0-12.8-6.4-19.2-6.4-6.4-6.4-6.4-6.4-6.4-12.8s6.4-12.8 6.4-12.8 12.8-6.4 19.2-12.8c6.4 0 6.4-6.4 12.8-12.8l6.4-6.4 6.4-6.4v-12.8c0-6.4 0-12.8-6.4-19.2s0-19.2-6.4-19.2-12.8 0-19.2 6.4c-6.4 12.8-6.4 19.2-6.4 25.6 0 6.4 0 12.8 6.4 19.2l6.4 6.4c6.4 0 6.4 0 6.4 6.4s-6.4 6.4-6.4 6.4-6.4 0-6.4-6.4c-12.8-6.4-12.8-12.8-12.8-19.2v-19.2c0-12.8 6.4-25.6 6.4-32 6.4-12.8 12.8-19.2 25.6-12.8 12.8 0 19.2 6.4 25.6 19.2 6.4 12.8 6.4 32 6.4 51.2h25.6c12.8 0 12.8 6.4 19.2 6.4v-6.4c-6.4-57.6 12.8-83.2 51.2-83.2 6.4 0 12.8 0 12.8 6.4s12.8 0 19.2 6.4c6.4 6.4 6.4 12.8 12.8 19.2s0 12.8 6.4 25.6v19.2c0 12.8 0 19.2-6.4 19.2H576c-6.4 0 0-6.4 0-12.8 6.4-6.4 0-19.2 0-32-6.4-12.8-19.2-19.2-32-19.2-6.4 0-19.2 6.4-19.2 12.8-6.4 12.8-6.4 25.6-6.4 32v12.8l19.2 6.4c6.4 0 6.4 6.4 12.8 6.4 12.8 6.4 12.8 6.4 19.2 6.4 12.8 6.4 25.6 6.4 25.6 12.8v25.6c-6.4 19.2-6.4 32-6.4 38.4 0 6.4 6.4 12.8 6.4 25.6s6.4 12.8 12.8 19.2c6.4 6.4 12.8 19.2 19.2 32 6.4 12.8 12.8 38.4 19.2 57.6l6.4 6.4 6.4 6.4c0 6.4 6.4 6.4 6.4 12.8 6.4 6.4 6.4 12.8 12.8 25.6s6.4 25.6 12.8 38.4c6.4 19.2 6.4 38.4 6.4 64s0 38.4 6.4 44.8 12.8 12.8 19.2 12.8c12.8 0 25.6-6.4 25.6-25.6 12.8-44.8 0-96-32-160-12.8-25.6-25.6-38.4-32-44.8 12.8 6.4 25.6 19.2 38.4 44.8 12.8 19.2 25.6 38.4 25.6 57.6V652.8s0 12.8-6.4 12.8c19.2 6.4 32 19.2 32 25.6-6.4-6.4-19.2-12.8-32-12.8s-25.6 0-38.4 6.4c-12.8 6.4-19.2 19.2-19.2 32-12.8 0-25.6 6.4-32 12.8-6.4 12.8-12.8 25.6-12.8 38.4 0 19.2 0 38.4 6.4 57.6 6.4 19.2 6.4 32 6.4 44.8 6.4 6.4 6.4 19.2 0 44.8zM416 198.4c0-6.4 6.4-6.4 0 0 6.4-6.4 6.4 0 12.8 6.4v19.2c-6.4 0-6.4-6.4-6.4-12.8 6.4-6.4 0-12.8-6.4-12.8 6.4 0 0 0 0 0z m153.6 12.8c-6.4 0-6.4 0 0 0-6.4-6.4-12.8-12.8-19.2-12.8 0 0 0-6.4 6.4-6.4h6.4c6.4 0 6.4 6.4 6.4 6.4v12.8z"  /><path d="M179.2 780.8c-6.4 0-6.4 0 0 0-6.4 6.4-12.8 12.8-25.6 12.8h-44.8-6.4s-6.4 0-6.4 6.4v12.8c0 6.4 0 12.8 6.4 19.2 0 0 6.4 6.4 6.4 19.2V870.4c0 6.4-6.4 12.8-12.8 25.6s-6.4 19.2-6.4 25.6c0 6.4 6.4 12.8 19.2 12.8 6.4 0 25.6 6.4 51.2 12.8s44.8 6.4 57.6 12.8c6.4 0 25.6 6.4 44.8 12.8 19.2 6.4 32 12.8 44.8 12.8 12.8 0 25.6 6.4 32 0 19.2 0 25.6-6.4 38.4-12.8 6.4-6.4 12.8-19.2 12.8-25.6 0-12.8 0-19.2-6.4-32v-12.8-6.4c-6.4-6.4-6.4-19.2-12.8-25.6-6.4-12.8-19.2-25.6-25.6-38.4-6.4-6.4-6.4-12.8-12.8-12.8-25.6-44.8-51.2-70.4-64-83.2l-19.2-19.2h-6.4c-6.4 0-6.4-6.4-12.8-6.4h-6.4-6.4c-6.4 0-12.8 0-12.8 6.4-12.8 0-12.8 12.8-12.8 25.6 0 19.2-6.4 25.6-12.8 38.4zM108.8 857.6v0zM140.8 793.6h-25.6 25.6z" fill="#F7C10D" /><path d="M268.8 729.6c12.8 12.8 32 44.8 64 83.2-25.6-32-51.2-64-64-83.2zM96 812.8v-12.8 12.8zM390.4 921.6c6.4 12.8 6.4 25.6 6.4 32-6.4 0-6.4-12.8-6.4-32zM102.4 832c-6.4-6.4-6.4-12.8-6.4-19.2 0 6.4 0 12.8 6.4 19.2zM377.6 896zM96 800l6.4-6.4-6.4 6.4zM339.2 832c6.4 12.8 12.8 25.6 25.6 38.4-6.4-12.8-12.8-25.6-25.6-38.4zM249.6 716.8l19.2 19.2c-6.4-12.8-12.8-12.8-19.2-19.2zM217.6 704h0zM236.8 704c6.4 0 6.4 6.4 12.8 6.4-6.4 0-12.8-6.4-12.8-6.4zM115.2 876.8v-6.4 12.8c-6.4 19.2-19.2 38.4-19.2 51.2 0-6.4 0-12.8 6.4-25.6s12.8-25.6 12.8-32zM339.2 998.4h-32c-12.8 0-25.6-6.4-44.8-12.8-19.2-6.4-32-12.8-44.8-12.8-12.8 0-32-6.4-57.6-12.8s-38.4-6.4-51.2-12.8c-12.8-6.4-19.2-6.4-19.2-12.8 6.4 12.8 6.4 12.8 83.2 25.6 70.4 12.8 96 38.4 153.6 38.4s57.6-38.4 57.6-44.8c0 12.8-6.4 19.2-12.8 25.6 0 12.8-12.8 19.2-32 19.2zM192 742.4c0 12.8-6.4 25.6-12.8 38.4 6.4-12.8 12.8-19.2 12.8-38.4zM825.6 742.4c-6.4 6.4-6.4 12.8-12.8 19.2 0 6.4-6.4 6.4-12.8 12.8-19.2 19.2-44.8 12.8-44.8 12.8h-12.8-6.4s-6.4 0-6.4-6.4c0 0-6.4 0-6.4-6.4s-6.4-6.4-6.4-6.4-6.4-6.4-6.4-12.8v-6.4s0-6.4-6.4-6.4c0-6.4-6.4-6.4-6.4-6.4s0-6.4-6.4-6.4-6.4-6.4-12.8 0c-6.4 0-12.8 12.8-12.8 25.6v32c0 6.4 0 19.2 6.4 25.6 6.4 12.8 6.4 32 6.4 57.6v25.6c0 12.8 0 19.2-6.4 32-6.4 25.6 0 38.4 6.4 51.2 0 0 0 6.4 6.4 6.4 6.4 6.4 6.4 6.4 12.8 6.4 6.4 6.4 19.2 6.4 25.6 6.4 19.2 0 32-6.4 51.2-19.2l19.2-19.2s6.4 0 6.4-6.4c0 0 6.4 0 6.4-6.4 6.4-6.4 12.8-6.4 19.2-12.8 6.4-6.4 12.8-6.4 19.2-12.8 6.4 0 12.8-6.4 12.8-6.4 6.4 0 12.8-6.4 19.2-6.4 19.2-6.4 32-12.8 44.8-19.2 6.4-6.4 6.4-6.4 6.4-12.8v-6.4-6.4-6.4s0-6.4-6.4-6.4l-6.4-6.4c-6.4-6.4-19.2-6.4-32-12.8-6.4 0-12.8-6.4-12.8-6.4s0-6.4-6.4-6.4c0-6.4-6.4-6.4-6.4-12.8-6.4-12.8-6.4-19.2-6.4-25.6v-6.4-25.6c0-6.4 6.4-6.4 6.4-12.8 12.8-12.8-6.4-32-19.2-19.2H832c6.4 12.8 0 19.2-6.4 25.6z" fill="#F7C10D" /><path d="M883.2 915.2c-6.4 0-12.8 6.4-19.2 6.4 6.4 0 6.4 0 12.8-6.4 44.8-12.8 57.6-25.6 64-32 0 0-6.4 6.4-6.4 12.8-19.2 6.4-32 12.8-51.2 19.2zM672 806.4s6.4 32 6.4 57.6c0-19.2-6.4-38.4-6.4-57.6zM684.8 723.2c-12.8 6.4-12.8 25.6-12.8 25.6 0-12.8 0-19.2 12.8-25.6zM716.8 768c0-6.4-6.4-12.8-6.4-19.2v6.4c0 6.4 6.4 6.4 6.4 12.8zM723.2 774.4c-6.4 0-6.4-6.4-6.4-6.4s6.4 0 6.4 6.4zM812.8 755.2l-12.8 12.8c6.4 0 12.8-6.4 12.8-12.8zM819.2 940.8s6.4 0 0 0c6.4 0 6.4 0 0 0zM928 864c-6.4-6.4-19.2-12.8-38.4-19.2 12.8 6.4 19.2 6.4 32 12.8l6.4 6.4zM672 921.6v32c0 6.4 6.4 12.8 6.4 19.2-6.4-12.8-12.8-32-6.4-51.2zM768 979.2c-12.8 12.8-32 19.2-51.2 19.2 25.6 0 44.8-12.8 51.2-19.2zM844.8 928zM800 953.6zM934.4 876.8s0 6.4 0 0c0 6.4 0 0 0 0zM934.4 870.4zM864 748.8s-6.4 6.4-6.4 12.8c0-6.4 6.4-12.8 6.4-12.8zM684.8 723.2h12.8-12.8zM697.6 729.6l6.4 6.4s-6.4 0-6.4-6.4zM812.8 755.2c6.4-6.4 6.4-12.8 12.8-19.2 0 6.4-6.4 12.8-12.8 19.2zM691.2 985.6c-6.4 0-6.4-6.4-12.8-6.4 6.4 6.4 12.8 6.4 12.8 6.4zM672 806.4c0-12.8-6.4-19.2-6.4-25.6 0 12.8 0 19.2 6.4 25.6zM665.6 774.4v-25.6 25.6zM742.4 780.8c-6.4 0-6.4 0-12.8-6.4 6.4 6.4 6.4 6.4 12.8 6.4-6.4 0 0 0 0 0zM844.8 729.6s-6.4 0 0 0c-6.4 0-6.4 0 0 0zM870.4 825.6c-6.4-12.8-12.8-32-12.8-38.4 0 6.4 0 19.2 6.4 25.6 0 6.4 6.4 12.8 6.4 12.8zM876.8 832zM595.2 307.2v-12.8h-12.8l-6.4 6.4c-6.4 0-19.2 6.4-32 12.8-19.2 6.4-25.6 6.4-25.6 6.4s-19.2 12.8-44.8 12.8h-57.6l12.8 12.8c6.4 6.4 12.8 12.8 19.2 12.8h44.8c6.4 0 12.8-6.4 19.2-6.4 6.4 0 12.8-6.4 19.2-12.8 0 0 6.4 0 6.4-6.4h12.8c6.4 0 12.8-6.4 12.8-6.4l32-19.2zM473.6 339.2H448h25.6z" fill="#F7C10D" /><path d="M512 352c-6.4 0-12.8 6.4-19.2 6.4 19.2-6.4 32-12.8 44.8-25.6 0 0-6.4 0-6.4 6.4-6.4 6.4-12.8 6.4-19.2 12.8zM544 332.8c6.4 0 12.8-6.4 19.2-6.4-6.4 0-12.8 0-19.2 6.4zM422.4 339.2s6.4 12.8 12.8 12.8c-12.8-6.4-12.8-12.8-12.8-12.8zM486.4 358.4s-6.4 0 0 0c-6.4 0 0 0 0 0zM595.2 294.4v6.4-6.4zM422.4 339.2s0-6.4 0 0c6.4 0 0-6.4 0 0zM467.2 358.4h-12.8 12.8z" fill="#F7C10D" /><path d="M448 358.4c-6.4 0-12.8-6.4-12.8-6.4-6.4-6.4 0 0 12.8 6.4zM569.6 300.8c6.4 0 6.4 0 6.4-6.4l-57.6 25.6s6.4 0 19.2-6.4c12.8-6.4 25.6-12.8 32-12.8z" fill="#F7C10D" /><path d="M576 281.6l6.4 6.4h19.2v-6.4-12.8c0-6.4-12.8-12.8-25.6-12.8h-19.2c-6.4 0-12.8-6.4-12.8-6.4-6.4-6.4-12.8-12.8-19.2-12.8s-12.8 0-19.2-6.4c-6.4-6.4-12.8-6.4-25.6-6.4h-19.2-6.4l-12.8 6.4c-6.4 6.4-12.8 6.4-19.2 12.8-6.4 6.4-6.4 12.8-12.8 12.8-12.8 6.4-12.8 6.4-12.8 12.8-6.4 0-6.4 6.4-12.8 12.8 0 6.4 0 6.4 6.4 12.8 6.4 0 6.4 6.4 12.8 12.8s6.4 12.8 6.4 12.8l6.4 6.4c6.4 0 12.8 0 19.2 6.4h25.6c25.6-12.8 32-12.8 38.4-12.8h6.4c25.6-12.8 6.4 0 32-12.8h6.4c6.4 0 6.4-6.4 12.8-6.4s12.8-6.4 12.8-12.8 0 0 6.4-6.4c-6.4 0-6.4 0 0 0z m-121.6-44.8c-6.4 0-6.4 0-12.8 6.4 0 6.4-6.4 6.4-6.4 6.4v-6.4c6.4-6.4 6.4-6.4 19.2-6.4z m44.8 6.4s-6.4 0-6.4-6.4c0 0-6.4-6.4-12.8 0 12.8-6.4 19.2-6.4 19.2 6.4 6.4-6.4 6.4 0 0 0z" fill="#F7C10D" /><path d="M480 224c6.4 0 12.8 0 19.2 6.4 0 0 0-6.4-19.2-6.4h-19.2 19.2zM499.2 243.2zM499.2 320h-19.2 19.2zM441.6 326.4c-6.4 0-12.8-6.4-12.8-6.4 6.4 6.4 12.8 6.4 12.8 6.4zM524.8 236.8zM595.2 275.2v0c0-6.4-12.8-12.8-25.6-12.8-6.4-6.4-6.4-6.4-12.8-6.4h12.8c19.2 6.4 25.6 12.8 25.6 19.2zM595.2 294.4v-6.4 6.4zM422.4 320l-6.4-6.4 6.4 6.4zM441.6 236.8h12.8-12.8v0h12.8-12.8zM467.2 326.4H448h19.2zM569.6 281.6zM441.6 230.4l-6.4 6.4-6.4 6.4c0-6.4 6.4-6.4 12.8-12.8zM537.6 307.2c19.2-6.4 25.6-12.8 25.6-12.8 0 6.4-6.4 6.4-12.8 12.8 0-6.4-6.4-6.4-12.8 0zM544 249.6c6.4 0 0 0 0 0s-19.2-12.8-19.2-6.4c6.4-6.4 12.8 0 19.2 6.4zM396.8 268.8s6.4 0 12.8-6.4c-6.4 0-12.8 6.4-12.8 6.4s-6.4 6.4-6.4 12.8 0 6.4 6.4 12.8c-6.4-6.4-12.8-6.4-12.8-12.8 6.4-6.4 6.4-12.8 12.8-12.8zM454.4 224zM486.4 236.8c6.4-6.4 12.8-6.4 19.2 0v0c-6.4-6.4-12.8-6.4-19.2 0zM454.4 236.8z" fill="#F7C10D" /><path d="M499.2 243.2zM441.6 236.8c-6.4 0-6.4 6.4 0 0v6.4c-6.4 6.4-6.4 0 0-6.4-6.4 6.4-6.4 0 0 0zM486.4 236.8h6.4l6.4 6.4s-6.4 0-6.4-6.4h-6.4z"  /><path d="M486.4 236.8h12.8l6.4 6.4v-6.4c-6.4-6.4-12.8-6.4-19.2 0zM454.4 236.8zM454.4 236.8h-12.8v6.4l6.4-6.4h6.4z"  /></svg>