<?xml version="1.0" standalone="no"?><!DOCTYPE svg PUBLIC "-//W3C//DTD SVG 1.1//EN" "http://www.w3.org/Graphics/SVG/1.1/DTD/svg11.dtd"><svg class="icon" width="16px" height="16.00px" viewBox="0 0 1024 1024" version="1.1" xmlns="http://www.w3.org/2000/svg"><path d="M806.4 147.2h-89.6v-57.6H640C620.8 57.6 569.6 32 518.4 32c-51.2 0-96 25.6-121.6 57.6H320v64H236.8c-64 0-115.2 51.2-115.2 115.2v576c0 64 51.2 115.2 115.2 115.2h576c64 0 115.2-51.2 108.8-121.6v-576c0-64-51.2-115.2-115.2-115.2z m-435.2 0h64c0-32 38.4-57.6 83.2-57.6 44.8 0 83.2 25.6 83.2 57.6h57.6v115.2H371.2V147.2z m352 640H320c-12.8 0-32-12.8-32-32s12.8-32 32-32h403.2c12.8 0 32 12.8 32 32s-12.8 32-32 32z m0-147.2H320c-12.8 0-32-12.8-32-32 0-12.8 12.8-32 32-32h403.2c12.8 0 32 12.8 32 32s-12.8 32-32 32z m0-140.8H320c-12.8 0-32-12.8-32-32 0-12.8 12.8-32 32-32h403.2c12.8 0 32 12.8 32 32s-12.8 32-32 32z" /></svg>