<?xml version="1.0" standalone="no"?><!DOCTYPE svg PUBLIC "-//W3C//DTD SVG 1.1//EN" "http://www.w3.org/Graphics/SVG/1.1/DTD/svg11.dtd"><svg class="icon" width="16px" height="16.00px" viewBox="0 0 1024 1024" version="1.1" xmlns="http://www.w3.org/2000/svg"><path d="M896 192c-38.4 0-64-32-64-64 0-38.4 32-64 64-64 38.4 0 64 32 64 64s-25.6 64-64 64z m0 64c12.8 0 19.2 0 32-6.4v524.8c-12.8 0-19.2-6.4-32-6.4-70.4 0-128 57.6-128 128 0 12.8 0 19.2 6.4 32H249.6c0-6.4 6.4-19.2 6.4-32 0-70.4-57.6-128-128-128-12.8 0-19.2 0-32 6.4V249.6c6.4 0 19.2 6.4 32 6.4 70.4 0 128-57.6 128-128 0-12.8 0-19.2-6.4-32h524.8c0 6.4-6.4 19.2-6.4 32 0 70.4 57.6 128 128 128zM128 192c-38.4 0-64-32-64-64 0-38.4 32-64 64-64 38.4 0 64 32 64 64s-32 64-64 64z m0 640c38.4 0 64 32 64 64s-32 64-64 64c-38.4 0-64-32-64-64s25.6-64 64-64z m768 0c38.4 0 64 32 64 64s-32 64-64 64c-38.4 0-64-32-64-64s32-64 64-64z" /></svg>