<?xml version="1.0" standalone="no"?><!DOCTYPE svg PUBLIC "-//W3C//DTD SVG 1.1//EN" "http://www.w3.org/Graphics/SVG/1.1/DTD/svg11.dtd"><svg class="icon" width="16px" height="16.00px" viewBox="0 0 1024 1024" version="1.1" xmlns="http://www.w3.org/2000/svg"><path d="M32 212C32 178.86290000000002 58.67786000000001 152 92.05232000000001 152L931.94768 152C965.11364 152 992 178.63190000000003 992 212 992 245.13709999999998 965.32214 272 931.94768 272L92.05232000000001 272C58.886360000000025 272 32 245.36809999999997 32 212ZM32 512C32 478.86289999999997 58.67786000000001 452 92.05232000000001 452L931.94768 452C965.11364 452 992 478.6319 992 512 992 545.1370999999999 965.32214 572 931.94768 572L92.05232000000001 572C58.886360000000025 572 32 545.3680999999999 32 512ZM32 812C32 778.8629000000001 58.67786000000001 752 92.05232000000001 752L931.94768 752C965.11364 752 992 778.6319000000001 992 812 992 845.1370999999999 965.32214 872 931.94768 872L92.05232000000001 872C58.886360000000025 872 32 845.3680999999999 32 812Z" /></svg>