<?xml version="1.0" encoding="utf-8"?>
<!-- Generator: Adobe Illustrator 22.0.0, SVG Export Plug-In . SVG Version: 6.00 Build 0)  -->
<svg version="1.1" id="图层_1" xmlns="http://www.w3.org/2000/svg" xmlns:xlink="http://www.w3.org/1999/xlink" x="0px" y="0px"
	 viewBox="0 0 45 45" style="enable-background:new 0 0 45 45;" xml:space="preserve">
<style type="text/css">
	.st0{fill:none;enable-background:new    ;}
</style>
<path class="st0" d="M0,0"/>
<g>
	<path d="M22.6,42.6c-11.2,0-20.4-9.2-20.4-20.4C2.2,11,11.4,1.8,22.6,1.8S43,11,43,22.2S33.8,42.6,22.6,42.6z M22.6,3.4
		c-10.4,0-18.8,8.4-18.8,18.8C3.8,32.6,12.2,41,22.6,41s18.8-8.4,18.8-18.8S33,3.4,22.6,3.4z"/>
	<g>
		<g>
			<path d="M8.1,24.4L8.1,24.4c0-0.1,0.1-0.2,0.2-0.2h8.6c0.1,0,0.2,0.1,0.2,0.2l0,0c0,0.1-0.1,0.2-0.2,0.2H8.3
				C8.2,24.6,8.1,24.5,8.1,24.4z"/>
			<path d="M16.9,25.1H8.3c-0.3,0-0.7-0.3-0.7-0.7c0-0.4,0.3-0.7,0.7-0.7h8.6c0.4,0,0.7,0.3,0.7,0.7C17.6,24.8,17.3,25.1,16.9,25.1z
				"/>
		</g>
		<g>
			<path d="M16.9,24.5L16.9,24.5c-0.1-0.1-0.1-0.2-0.1-0.2l4.2-7.6c0.1-0.1,0.2-0.1,0.2-0.1l0,0c0.1,0.1,0.1,0.2,0.1,0.2l-4.2,7.6
				C17.1,24.6,17,24.6,16.9,24.5z"/>
			<path d="M17,25.1c-0.1,0-0.2,0-0.4-0.1c-0.2-0.1-0.3-0.3-0.4-0.5c0-0.2,0-0.3,0.1-0.5l4.2-7.5c0.1-0.2,0.3-0.3,0.5-0.4
				c0.2,0,0.4,0,0.5,0.1c0.2,0.1,0.3,0.3,0.3,0.5s0,0.3-0.1,0.5l-4.2,7.5c0,0.1-0.1,0.3-0.3,0.3C17.2,25.1,17.1,25.1,17,25.1z
				 M21.5,17L21.5,17L21.5,17z"/>
		</g>
		<g>
			<path d="M24.8,27.7L24.8,27.7c-0.1-0.1-0.1-0.2-0.1-0.2l4.2-7.6c0.1-0.1,0.2-0.1,0.2-0.1l0,0c0.1,0.1,0.1,0.2,0.1,0.2L25,27.7
				C25,27.8,24.9,27.8,24.8,27.7z"/>
			<path d="M24.9,28.3c-0.1,0-0.2,0-0.4-0.1c-0.2-0.1-0.3-0.3-0.4-0.5c0-0.2,0-0.3,0.1-0.5l4.2-7.5c0.1-0.2,0.3-0.3,0.5-0.4
				c0.2,0,0.4,0,0.5,0.1c0.2,0.1,0.3,0.3,0.3,0.5s0,0.3-0.1,0.5l-4.2,7.5c0,0.1-0.1,0.3-0.3,0.3C25.1,28.2,25,28.3,24.9,28.3z
				 M29.4,20.2L29.4,20.2L29.4,20.2z"/>
		</g>
		<g>
			<path d="M31.6,25L31.6,25c-0.1,0.1-0.2,0-0.2-0.1L29,20.1c-0.1-0.1,0-0.2,0.1-0.2l0,0c0.1-0.1,0.2,0,0.2,0.1l2.4,4.8
				C31.7,24.9,31.7,25,31.6,25z"/>
			<path d="M31.5,25.6c-0.1,0-0.3,0-0.4-0.1s-0.2-0.2-0.3-0.3l-2.4-4.8c-0.1-0.2-0.1-0.5,0-0.7c0.1-0.1,0.2-0.2,0.3-0.3
				c0.2-0.1,0.4-0.1,0.6,0.1c0.1,0.1,0.2,0.2,0.3,0.3l2.4,4.8c0.1,0.2,0.1,0.5,0,0.7c-0.1,0.1-0.2,0.2-0.4,0.3
				C31.6,25.5,31.5,25.6,31.5,25.6z"/>
		</g>
		<g>
			<path d="M37.1,24.9L37.1,24.9c0,0.1-0.1,0.2-0.2,0.2L31.5,25c-0.1,0-0.2-0.1-0.2-0.2l0,0c0-0.1,0.1-0.2,0.2-0.2l5.4,0.1
				C37,24.7,37.1,24.8,37.1,24.9z"/>
			<path d="M36.9,25.6l-5.4-0.1c-0.4,0-0.7-0.3-0.7-0.7c0-0.4,0.3-0.7,0.7-0.7l5.4,0.1c0.4,0,0.7,0.4,0.7,0.7
				C37.6,25.3,37.3,25.6,36.9,25.6z M36.9,25.3L36.9,25.3L36.9,25.3z M31.5,24.5L31.5,24.5L31.5,24.5z"/>
		</g>
		<g>
			<path d="M24.9,27.7L24.9,27.7c0.1-0.1,0.2-0.1,0.1-0.2l-3.6-10.7c-0.1-0.1-0.1-0.2-0.2-0.1l0,0c-0.1,0.1-0.2,0.1-0.1,0.2
				l3.6,10.7C24.7,27.7,24.8,27.7,24.9,27.7z"/>
			<path d="M25,28.2h-0.1c-0.2,0-0.5-0.1-0.7-0.5v-0.1L20.6,17c-0.1-0.3-0.1-0.7,0.4-0.9c0.3-0.1,0.7-0.1,0.9,0.3v0.1l3.6,10.7
				c0.1,0.2,0.1,0.4,0,0.5c-0.1,0.3-0.3,0.4-0.4,0.4L25,28.2z M24.8,27.5l0.1,0.2L24.8,27.5z M24.6,27.2l0.1,0.3L24.6,27.2z"/>
		</g>
	</g>
</g>
</svg>
