<?xml version="1.0" standalone="no"?><!DOCTYPE svg PUBLIC "-//W3C//DTD SVG 1.1//EN" "http://www.w3.org/Graphics/SVG/1.1/DTD/svg11.dtd"><svg class="icon" width="16px" height="16.00px" viewBox="0 0 1024 1024" version="1.1" xmlns="http://www.w3.org/2000/svg"><path d="M979.2 512C979.2 256 768 44.8 512 44.8S44.8 256 44.8 512 256 979.2 512 979.2c12.8 0 25.6-12.8 25.6-25.6s-12.8-19.2-25.6-19.2c-230.4 0-422.4-185.6-422.4-422.4S275.2 89.6 512 89.6c230.4 0 422.4 185.6 422.4 422.4 0 108.8-38.4 204.8-108.8 281.6-6.4 6.4-6.4 12.8-6.4 12.8 0 12.8 12.8 25.6 25.6 25.6s19.2-6.4 25.6-12.8c64-83.2 108.8-192 108.8-307.2z"  /><path d="M428.8 307.2l57.6-57.6v192c0 12.8 6.4 19.2 19.2 19.2 12.8 0 19.2-6.4 19.2-19.2v-192l57.6 57.6c6.4 6.4 19.2 6.4 32 0s6.4-19.2 0-32L524.8 185.6c-6.4-6.4-12.8-6.4-19.2-6.4-6.4 0-12.8 0-12.8 6.4L403.2 275.2c-6.4 6.4-6.4 19.2 0 32s19.2 6.4 25.6 0zM844.8 505.6l-89.6-89.6c-6.4-6.4-19.2-6.4-32 0s-6.4 19.2 0 32l57.6 57.6h-192c-12.8-6.4-19.2 0-19.2 12.8s6.4 19.2 19.2 19.2h192l-57.6 57.6c-6.4 6.4-6.4 19.2 0 32s19.2 6.4 32 0l89.6-89.6c6.4-6.4 6.4-12.8 6.4-12.8 0-12.8 0-19.2-6.4-19.2zM588.8 729.6l-57.6 57.6v-192c0-12.8-6.4-19.2-19.2-19.2-12.8 0-19.2 6.4-19.2 19.2v192l-57.6-57.6c-6.4-6.4-19.2-6.4-32 0s-6.4 19.2 0 32l89.6 89.6c6.4 6.4 12.8 6.4 12.8 6.4 6.4 0 12.8 0 12.8-6.4l89.6-89.6c6.4-6.4 6.4-19.2 0-32s-6.4-6.4-19.2 0zM243.2 537.6h192c12.8 0 19.2-6.4 19.2-19.2 0-12.8-6.4-19.2-19.2-19.2h-192l57.6-57.6c6.4-6.4 6.4-19.2 0-32-6.4-6.4-19.2-6.4-32 0L179.2 505.6s-6.4 6.4-6.4 12.8 0 12.8 6.4 12.8l89.6 89.6c6.4 6.4 19.2 6.4 32 0 6.4-6.4 6.4-19.2 0-32l-57.6-51.2z"  /></svg>