<?xml version="1.0" standalone="no"?><!DOCTYPE svg PUBLIC "-//W3C//DTD SVG 1.1//EN" "http://www.w3.org/Graphics/SVG/1.1/DTD/svg11.dtd"><svg class="icon" width="16px" height="16.00px" viewBox="0 0 1024 1024" version="1.1" xmlns="http://www.w3.org/2000/svg"><path d="M825.6 947.2H198.4c-57.6 0-102.4-44.8-102.4-102.4v-640c0-57.6 44.8-102.4 102.4-102.4h51.2v313.6c0 32 25.6 51.2 51.2 51.2h422.4c32 0 51.2-25.6 51.2-51.2V102.4h51.2c57.6 0 102.4 44.8 102.4 102.4v633.6c6.4 57.6-44.8 108.8-102.4 108.8z m-128-531.2H326.4c-12.8 0-25.6-12.8-25.6-25.6V102.4h422.4v288c0 12.8-12.8 25.6-25.6 25.6zM614.4 230.4c0-12.8-12.8-25.6-25.6-25.6s-25.6 12.8-25.6 25.6v102.4c0 12.8 12.8 25.6 25.6 25.6s25.6-12.8 25.6-25.6V230.4z" /></svg>