<?xml version="1.0" standalone="no"?><!DOCTYPE svg PUBLIC "-//W3C//DTD SVG 1.1//EN" "http://www.w3.org/Graphics/SVG/1.1/DTD/svg11.dtd"><svg class="icon" width="16px" height="16.00px" viewBox="0 0 1024 1024" version="1.1" xmlns="http://www.w3.org/2000/svg"><path d="M51.2 928h192c32 0 51.2-25.6 51.2-51.2V768c0-32-25.6-51.2-51.2-51.2H166.4V627.2c0-12.8 12.8-25.6 25.6-25.6h294.4v115.2H416c-32 0-51.2 25.6-51.2 51.2v102.4c0 32 25.6 51.2 51.2 51.2h192c32 0 51.2-25.6 51.2-51.2V768c0-32-25.6-51.2-51.2-51.2H531.2V601.6h294.4c12.8 0 25.6 12.8 25.6 25.6v89.6h-76.8c-32 0-51.2 25.6-51.2 51.2v102.4c0 32 25.6 51.2 51.2 51.2h192c32 0 51.2-25.6 51.2-51.2V768c0-32-25.6-51.2-51.2-51.2H896V627.2c0-38.4-32-64-64-64H531.2V460.8h153.6c38.4 0 70.4-32 70.4-70.4V166.4c0-38.4-32-70.4-70.4-70.4H339.2c-38.4 0-70.4 32-70.4 70.4v224c0 38.4 32 70.4 70.4 70.4h153.6v96H198.4c-38.4 0-64 32-64 64v89.6H51.2c-25.6 6.4-51.2 32-51.2 57.6v102.4c0 32 25.6 57.6 51.2 57.6zM620.8 768v102.4c0 6.4-6.4 12.8-12.8 12.8h-192c-6.4 0-12.8-6.4-12.8-12.8V768c0-6.4 6.4-12.8 12.8-12.8h192c6.4 0 12.8 6.4 12.8 12.8z m364.8 0v102.4c0 6.4-6.4 12.8-12.8 12.8h-192c-6.4 0-12.8-6.4-12.8-12.8V768c0-6.4 6.4-12.8 12.8-12.8h192c6.4 0 12.8 6.4 12.8 12.8zM307.2 390.4V166.4c0-19.2 12.8-32 32-32h345.6c19.2 0 32 12.8 32 32v224c0 19.2-12.8 32-32 32H339.2c-19.2 0-32-12.8-32-32zM38.4 768c0-6.4 6.4-12.8 12.8-12.8h192c6.4 0 12.8 6.4 12.8 12.8v102.4c0 6.4-6.4 12.8-12.8 12.8h-192c-6.4 0-12.8-6.4-12.8-12.8V768z"  /><path d="M409.6 256h198.4c12.8 0 19.2-6.4 19.2-19.2s-6.4-19.2-12.8-19.2H409.6c-12.8 0-19.2 6.4-19.2 19.2s12.8 19.2 19.2 19.2z m224 70.4c0-12.8-6.4-19.2-19.2-19.2H409.6c-12.8 0-19.2 6.4-19.2 19.2s6.4 19.2 19.2 19.2h198.4c12.8 0 25.6-12.8 25.6-19.2z"  /></svg>