<?xml version="1.0" standalone="no"?><!DOCTYPE svg PUBLIC "-//W3C//DTD SVG 1.1//EN" "http://www.w3.org/Graphics/SVG/1.1/DTD/svg11.dtd"><svg class="icon" width="16px" height="16.00px" viewBox="0 0 1024 1024" version="1.1" xmlns="http://www.w3.org/2000/svg"><path d="M844.8 729.6H428.8c-57.6 0-102.4-44.8-102.4-102.4V211.2c0-57.6 44.8-102.4 102.4-102.4h416c57.6 0 102.4 44.8 102.4 102.4v416c0 57.6-44.8 102.4-102.4 102.4z m-441.6 51.2h332.8v51.2c0 57.6-44.8 102.4-102.4 102.4H224c-57.6 0-102.4-44.8-102.4-102.4V422.4c0-57.6 44.8-102.4 102.4-102.4h51.2v332.8c0 57.6 70.4 128 128 128z" /></svg>