<?xml version="1.0" standalone="no"?><!DOCTYPE svg PUBLIC "-//W3C//DTD SVG 1.1//EN" "http://www.w3.org/Graphics/SVG/1.1/DTD/svg11.dtd"><svg class="icon" width="16px" height="16.00px" viewBox="0 0 1024 1024" version="1.1" xmlns="http://www.w3.org/2000/svg"><path d="M289.332 122.348h445.336v111.329h-445.336v-111.329z"  /><path d="M901.666 289.342h-779.335c-30.659 0-55.667 25.061-55.667 55.665v278.322c0 30.607 25.009 55.666 55.667 55.666h167v222.658h445.336v-222.659h166.999c30.556 0 55.668-25.058 55.668-55.666v-278.322c0-30.603-25.112-55.664-55.668-55.664zM679.001 845.987h-334.001v-278.322h334.001v278.322zM873.835 413.203c-22.287 0-40.389-18.102-40.389-40.364s18.103-40.362 40.389-40.362c22.237 0 40.338 18.1 40.338 40.362s-18.102 40.364-40.338 40.364z"  /></svg>