<?xml version="1.0" standalone="no"?><!DOCTYPE svg PUBLIC "-//W3C//DTD SVG 1.1//EN" "http://www.w3.org/Graphics/SVG/1.1/DTD/svg11.dtd"><svg class="icon" width="16px" height="16.00px" viewBox="0 0 1024 1024" version="1.1" xmlns="http://www.w3.org/2000/svg"><path d="M883.2 800v-121.6c0-12.8-6.4-19.2-19.2-19.2H531.2V544v-6.4c32 0 57.6-6.4 83.2-19.2 140.8-57.6 204.8-217.6 147.2-352C716.8 64 620.8 0 512 0c-38.4 0-70.4 6.4-102.4 19.2-64 25.6-121.6 76.8-147.2 147.2s-25.6 140.8 0 204.8c38.4 96 128 160 230.4 166.4V659.2H160c-12.8 0-19.2 6.4-19.2 19.2v121.6c-51.2 6.4-96 57.6-96 108.8 0 64 51.2 115.2 115.2 115.2s115.2-51.2 115.2-115.2c0-57.6-38.4-102.4-96-108.8v-102.4h313.6v102.4c-51.2 6.4-96 57.6-96 108.8 0 64 51.2 115.2 115.2 115.2s115.2-51.2 115.2-115.2c0-57.6-38.4-102.4-96-108.8v-102.4h313.6v102.4c-51.2 6.4-96 57.6-96 108.8 0 64 51.2 115.2 115.2 115.2s115.2-51.2 115.2-115.2c0-57.6-44.8-102.4-96-108.8zM294.4 345.6c-19.2-51.2-19.2-102.4 0-153.6h64c-6.4 25.6-6.4 51.2-6.4 76.8 0 25.6 6.4 51.2 6.4 76.8h-64z m96-76.8c0-25.6 0-51.2 6.4-76.8h96v153.6H396.8c-6.4-25.6-6.4-51.2-6.4-76.8zM729.6 192c19.2 51.2 19.2 108.8 0 153.6h-64c6.4-25.6 6.4-51.2 6.4-76.8 0-25.6 0-51.2-6.4-76.8h64zM640 268.8c0 25.6-6.4 51.2-12.8 76.8H531.2V192h96c6.4 25.6 12.8 51.2 12.8 76.8zM531.2 499.2V384h83.2c-19.2 57.6-51.2 102.4-83.2 115.2z m0-345.6V44.8c38.4 12.8 70.4 57.6 89.6 115.2 0-6.4-89.6-6.4-89.6-6.4zM492.8 44.8v115.2H409.6c19.2-64 51.2-102.4 83.2-115.2z m0 339.2v108.8c-32-12.8-64-57.6-83.2-108.8h83.2z m115.2 96c19.2-25.6 38.4-64 51.2-96h57.6c-25.6 44.8-64 76.8-108.8 96z m108.8-326.4h-57.6c-6.4-25.6-19.2-44.8-25.6-64-6.4-12.8-12.8-19.2-19.2-25.6 38.4 19.2 76.8 51.2 102.4 89.6zM416 57.6c-6.4 12.8-12.8 19.2-19.2 32-12.8 19.2-19.2 44.8-25.6 64h-64c25.6-38.4 64-70.4 108.8-96zM307.2 384h64c12.8 38.4 25.6 70.4 51.2 102.4-44.8-19.2-89.6-57.6-115.2-102.4z m-70.4 524.8c0 38.4-32 76.8-76.8 76.8s-76.8-32-76.8-76.8 32-76.8 76.8-76.8 76.8 38.4 76.8 76.8z m352 0c0 38.4-32 76.8-76.8 76.8s-76.8-32-76.8-76.8S467.2 832 512 832s76.8 38.4 76.8 76.8z m275.2 76.8c-38.4 0-76.8-32-76.8-76.8s32-76.8 76.8-76.8 76.8 32 76.8 76.8-32 76.8-76.8 76.8z"  /></svg>