<?xml version="1.0" standalone="no"?><!DOCTYPE svg PUBLIC "-//W3C//DTD SVG 1.1//EN" "http://www.w3.org/Graphics/SVG/1.1/DTD/svg11.dtd"><svg class="icon" width="40px" height="40.00px" viewBox="0 0 1024 1024" version="1.1" xmlns="http://www.w3.org/2000/svg"><path d="M505.173333 962.56C250.311111 962.56 43.235556 755.484444 43.235556 500.622222S250.311111 38.684444 505.173333 38.684444 967.111111 245.76 967.111111 500.622222s-207.075556 461.937778-461.937778 461.937778z m0-887.466667C270.791111 75.093333 79.644444 266.24 79.644444 500.622222s191.146667 425.528889 425.528889 425.528889S930.702222 735.004444 930.702222 500.622222 739.555556 75.093333 505.173333 75.093333z"  /><path d="M723.626667 452.835556v-6.826667c2.275556-84.195556-54.613333-157.013333-136.533334-175.217778s-163.84 22.755556-200.248889 97.848889c-13.653333-6.826667-27.306667-9.102222-40.96-9.102222-45.511111 0-81.92 34.133333-91.022222 77.368889-63.715556 22.755556-102.4 84.195556-93.297778 152.462222 9.102222 65.991111 65.991111 116.053333 131.982223 120.604444v-25.031111c-54.613333-4.551111-100.124444-45.511111-109.226667-100.124444-6.826667-54.613333 25.031111-106.951111 75.093333-125.155556l13.653334-4.551111 2.275555-13.653333c4.551111-34.133333 34.133333-56.888889 68.266667-56.888889 11.377778 0 22.755556 2.275556 31.857778 6.826667l20.48 11.377777 9.102222-22.755555c29.582222-65.991111 102.4-102.4 175.217778-84.195556 70.542222 15.928889 120.604444 79.644444 118.328889 152.462222V477.866667h25.031111c56.888889 2.275556 100.124444 47.786667 100.124444 104.675555s-45.511111 102.4-100.124444 104.675556h-6.826667v22.755555h6.826667c70.542222 0 127.431111-56.888889 127.431111-127.431111 0-72.817778-56.888889-129.706667-127.431111-129.706666z"  /><path d="M618.951111 669.013333c0-2.275556-2.275556-4.551111-4.551111-4.551111h-34.133333c-2.275556 0-4.551111 2.275556-4.551111 4.551111v9.102223H432.355556v-9.102223c0-2.275556-2.275556-4.551111-4.551112-4.551111h-34.133333c-2.275556 0-4.551111 2.275556-4.551111 4.551111v9.102223h-45.511111v18.204444h45.511111v9.102222c0 2.275556 2.275556 4.551111 4.551111 4.551111h34.133333c4.551111 0 6.826667-2.275556 4.551112-6.826666v-6.826667h143.36v9.102222c0 2.275556 2.275556 4.551111 4.551111 4.551111H614.4c2.275556 0 4.551111-2.275556 4.551111-6.826666v-6.826667h50.062222v-18.204444h-50.062222v-9.102223z"  /></svg>