<?xml version="1.0" standalone="no"?><!DOCTYPE svg PUBLIC "-//W3C//DTD SVG 1.1//EN" "http://www.w3.org/Graphics/SVG/1.1/DTD/svg11.dtd"><svg class="icon" width="16px" height="16.00px" viewBox="0 0 1024 1024" version="1.1" xmlns="http://www.w3.org/2000/svg"><path d="M761.6 140.8C556.8 6.4 281.6 64 147.2 268.8c-76.8 115.2-89.6 256-51.2 384H128c25.6 0 51.2-6.4 76.8-19.2 6.4 0 12.8-6.4 19.2-6.4 12.8 0 25.6 6.4 32 19.2 6.4 6.4 12.8 19.2 19.2 19.2 6.4 6.4 19.2 6.4 25.6 6.4 6.4 0 12.8 0 19.2-6.4 0-6.4 0-12.8-6.4-12.8-12.8 0-19.2-12.8-25.6-19.2-12.8-12.8-19.2-25.6-25.6-38.4 0-19.2 12.8-38.4 32-38.4h19.2c19.2 6.4 32 19.2 44.8 38.4 6.4 6.4 12.8 6.4 19.2 6.4 6.4-6.4 12.8-6.4 19.2 0l6.4 6.4c6.4 6.4 44.8 64 89.6 64 32 0 57.6-6.4 83.2-6.4 12.8 0 19.2 6.4 25.6 6.4 12.8 0 25.6-12.8 38.4-6.4 12.8 0 25.6 6.4 38.4 6.4s44.8-19.2 44.8-6.4c0 12.8-6.4 32-12.8 44.8 0 12.8 0 25.6-6.4 38.4-6.4 12.8-12.8 25.6-19.2 32-12.8 12.8-19.2 25.6-25.6 38.4-6.4 12.8-19.2 32-32 44.8-6.4 6.4 32 0 44.8-12.8 12.8-19.2 38.4-38.4 57.6-51.2 19.2-6.4 25.6-12.8 25.6-19.2 0 0 0-6.4 6.4-6.4 25.6-12.8 51.2-12.8 83.2-12.8 19.2 0 38.4 0 51.2 6.4 128-217.6 70.4-492.8-134.4-627.2z m121.6 364.8c-19.2 115.2-211.2 153.6-396.8 102.4-179.2-57.6-339.2-166.4-320-230.4 12.8-38.4 70.4-51.2 147.2-44.8-12.8 25.6-12.8 57.6 38.4 89.6 64 32 128 57.6 198.4 64 12.8 0 19.2-6.4 12.8-12.8-12.8-12.8-25.6-32-25.6-44.8 0-12.8-6.4-32-70.4-44.8C320 358.4 326.4 320 326.4 294.4c0 0 12.8-57.6 19.2-76.8s19.2-64 108.8-44.8c32 6.4 64 6.4 96-6.4 38.4-12.8 76.8-6.4 108.8 19.2 38.4 51.2 64 108.8 76.8 166.4 6.4 19.2 6.4 38.4 0 57.6-6.4 12.8-6.4 19.2-12.8 32 0 6.4 0 6.4 6.4 6.4 19.2-12.8 38.4-32 38.4-51.2 76.8 12.8 121.6 51.2 115.2 108.8z"  /><path d="M313.6 332.8s-102.4-12.8-140.8 32 64 121.6 64 121.6S384 588.8 550.4 620.8c166.4 25.6 268.8-12.8 307.2-64 44.8-51.2 19.2-96 6.4-108.8-12.8-19.2-32-44.8-96-57.6 0 0-64 83.2-25.6 12.8 19.2-32-19.2-115.2-51.2-172.8-12.8-32-32-51.2-32-51.2s-25.6-25.6-70.4-19.2c-44.8 0-32 6.4-70.4 12.8-38.4 6.4-83.2-12.8-83.2-12.8s-44.8 0-70.4 12.8-32 96-32 96l-12.8 64h-6.4z" fill="#EA2626" /><path d="M320 300.8s-12.8 44.8 83.2 70.4c89.6 25.6 102.4 25.6 115.2 32 12.8 12.8 12.8 19.2 12.8 19.2s-6.4 25.6 25.6 51.2c0 0 6.4 6.4-12.8 6.4-57.6 0-179.2-38.4-224-76.8-38.4-38.4-12.8-70.4-12.8-70.4l12.8-32zM467.2 249.6h-51.2c-12.8 6.4-25.6 0-32-12.8 0-6.4-12.8-6.4-19.2 0l-6.4 6.4c0 12.8 6.4 32 19.2 38.4 0 0 19.2 32 32 19.2s12.8-12.8 64-19.2c25.6 0 25.6-6.4 25.6-12.8-6.4-12.8-19.2-19.2-32-19.2zM588.8 179.2h-19.2c-12.8 0-25.6 6.4-38.4 12.8h6.4c25.6 0 51.2 0 51.2 12.8 0 6.4-12.8 12.8-25.6 12.8 6.4 0 19.2 6.4 25.6 6.4 25.6 0 51.2-12.8 51.2-25.6s-19.2-19.2-51.2-19.2z"  /></svg>