<?xml version="1.0" standalone="no"?><!DOCTYPE svg PUBLIC "-//W3C//DTD SVG 1.1//EN" "http://www.w3.org/Graphics/SVG/1.1/DTD/svg11.dtd"><svg class="icon" width="16px" height="16.00px" viewBox="0 0 1024 1024" version="1.1" xmlns="http://www.w3.org/2000/svg"><path d="M953.6 108.8H140.8c-12.8 0-25.6 12.8-25.6 25.6v76.8h-38.4c-12.8 0-25.6 12.8-25.6 25.6v582.4c0 12.8 12.8 25.6 25.6 25.6h531.2c12.8 0 19.2-12.8 19.2-25.6s-12.8-19.2-19.2-19.2H108.8c-6.4 0-12.8-6.4-12.8-12.8V268.8c0-6.4 6.4-12.8 12.8-12.8h755.2c6.4 0 12.8 6.4 12.8 12.8v492.8c0 12.8 12.8 19.2 19.2 19.2 12.8 0 19.2-12.8 19.2-19.2v-19.2h44.8c12.8 0 25.6-12.8 25.6-25.6V134.4c-6.4-19.2-19.2-25.6-32-25.6z m-12.8 576c0 6.4-6.4 12.8-12.8 12.8h-12.8V236.8c0-12.8-12.8-25.6-25.6-25.6H160v-51.2c0-6.4 6.4-12.8 12.8-12.8h755.2c6.4 0 12.8 6.4 12.8 12.8v524.8z"  /><path d="M492.8 364.8c-96 0-166.4 76.8-166.4 166.4s76.8 166.4 166.4 166.4 166.4-76.8 166.4-166.4c0-96-76.8-166.4-166.4-166.4z m0 288c-70.4 0-128-57.6-128-128s57.6-128 128-128 128 57.6 128 128-57.6 128-128 128z"  /></svg>