<?xml version="1.0" encoding="utf-8"?>
<!-- Generator: Adobe Illustrator 22.0.0, SVG Export Plug-In . SVG Version: 6.00 Build 0)  -->
<svg version="1.1" id="图层_1" xmlns="http://www.w3.org/2000/svg" xmlns:xlink="http://www.w3.org/1999/xlink" x="0px" y="0px"
	 viewBox="0 0 36 35" style="enable-background:new 0 0 36 35;" xml:space="preserve">
<g>
	<path d="M15.8,16.6H4.5c-1.1,0-2-0.9-2-2V4c0-1.1,0.9-2,2-2h11.3c1.1,0,2,0.9,2,2v10.7C17.8,15.8,16.9,16.6,15.8,16.6z M4.5,3.7
		C4.3,3.7,4.2,3.8,4.2,4v10.7c0,0.2,0.1,0.3,0.3,0.3h11.3c0.2,0,0.3-0.2,0.3-0.3V4c0-0.2-0.1-0.3-0.3-0.3H4.5z"/>
	<path d="M16.2,32.5H4.4c-1,0-1.7-0.8-1.7-1.7V19.7c0-1,0.8-1.7,1.7-1.7h11.8c1,0,1.7,0.8,1.7,1.7v11.1
		C17.9,31.7,17.2,32.5,16.2,32.5z M4.4,19.6L4.4,19.6v11.2c0,0,0,0.1,0.1,0.1h11.8c0,0,0.1,0,0.1-0.1V19.7c0,0,0-0.1-0.1-0.1H4.4z"
		/>
	<path d="M31.9,16.8H21.2c-1.3,0-2.3-1-2.3-2.3v-10c0-1.3,1-2.3,2.3-2.3h10.6c1.3,0,2.3,1,2.3,2.3v10C34.2,15.7,33.2,16.8,31.9,16.8
		z M21.2,3.8c-0.3,0-0.6,0.2-0.6,0.6v10c0,0.3,0.2,0.6,0.6,0.6h10.6c0.4,0,0.6-0.3,0.6-0.7v-10c0-0.3-0.2-0.6-0.6-0.6L21.2,3.8
		L21.2,3.8z"/>
	<path d="M32.4,32.5H20.5c-0.9,0-1.7-0.8-1.7-1.7V19.6c0-0.9,0.8-1.7,1.7-1.7h11.9c0.9,0,1.7,0.8,1.7,1.7v11.2
		C34.1,31.7,33.3,32.5,32.4,32.5z M20.5,19.6v11.2h11.9V19.6C32.4,19.6,20.5,19.6,20.5,19.6z"/>
	<rect x="23.2" y="6.3" width="6.8" height="6.4"/>
</g>
</svg>
