<?xml version="1.0" standalone="no"?><!DOCTYPE svg PUBLIC "-//W3C//DTD SVG 1.1//EN" "http://www.w3.org/Graphics/SVG/1.1/DTD/svg11.dtd"><svg class="icon" width="16px" height="16.00px" viewBox="0 0 1024 1024" version="1.1" xmlns="http://www.w3.org/2000/svg"><path d="M659.2 0L364.8 224V832l294.4 179.2V0z" fill="#F0F2F7" /><path d="M620.8 416c0 12.8-6.4 19.2-19.2 19.2H416c-12.8 0-19.2-6.4-19.2-19.2 0-12.8 6.4-19.2 19.2-19.2h179.2c12.8 0 25.6 12.8 25.6 19.2z m-12.8 89.6c0 12.8-6.4 19.2-19.2 19.2h-128c-6.4 0-12.8-6.4-12.8-19.2 0-12.8 6.4-19.2 19.2-19.2h128c6.4 0 12.8 12.8 12.8 19.2z m6.4 89.6c0 12.8-6.4 19.2-19.2 19.2H416c-12.8 0-19.2-6.4-19.2-19.2 0-12.8 6.4-19.2 19.2-19.2h179.2c12.8 6.4 19.2 12.8 19.2 19.2z m-172.8-57.6l-44.8-32 44.8-32v64z" fill="#323C4E" /></svg>