<?xml version="1.0" encoding="utf-8"?>
<!-- Generator: Adobe Illustrator 21.0.0, SVG Export Plug-In . SVG Version: 6.00 Build 0)  -->
<svg version="1.1" id="图层_1" xmlns="http://www.w3.org/2000/svg" xmlns:xlink="http://www.w3.org/1999/xlink" x="0px" y="0px"
	 width="16px" height="16px" viewBox="0 0 16 16" style="enable-background:new 0 0 16 16;" xml:space="preserve">
<path d="M13.4,8.1c0-0.6,0.5-1.1,1.1-1.1c0.6,0,1.1,0.5,1.1,1.1c0,0.6-0.5,1.1-1.1,1.1S13.4,8.7,13.4,8.1z M15,8.1
	c0-0.3-0.2-0.5-0.5-0.5c-0.3,0-0.5,0.2-0.5,0.5c0,0.3,0.2,0.5,0.5,0.5C14.8,8.6,15,8.4,15,8.1z M12.2,5.3l-0.2-0.6
	c1.2,0.5,2.1,1.2,2.6,2.1h-0.6C13.7,6.2,13,5.7,12.2,5.3z M11.8,10.6l-0.6,0.1c0.2-0.8,0.3-1.7,0.3-2.7c0-2.8-1-5.2-2.4-6.2l0-0.6
	c1.7,0.9,2.9,3.6,2.9,6.8C12.1,9,12,9.8,11.8,10.6z M7.9,2.5c-0.6,0-1.1-0.5-1.1-1.1s0.5-1.1,1.1-1.1c0.6,0,1.1,0.5,1.1,1.1
	C8.9,2.1,8.5,2.5,7.9,2.5z M8.4,1.5c0-0.3-0.2-0.5-0.5-0.5c-0.3,0-0.5,0.2-0.5,0.5S7.6,2,7.9,2C8.2,2,8.4,1.8,8.4,1.5z M6.6,1.9
	C6,2.3,5.5,2.9,5.1,3.7L4.5,3.9C5,2.7,5.7,1.8,6.6,1.3L6.6,1.9z M10.4,4.1l0.1,0.6C9.7,4.5,8.8,4.4,7.9,4.4c-2.8,0-5.2,1-6.2,2.4
	H1.1c0.9-1.7,3.6-2.9,6.8-2.9C8.8,3.8,9.6,3.9,10.4,4.1z M2.3,8.1c0,0.6-0.5,1.1-1.1,1.1c-0.6,0-1.1-0.5-1.1-1.1
	C0.2,7.5,0.7,7,1.3,7C1.9,7,2.3,7.5,2.3,8.1z M0.8,8.1c0,0.3,0.2,0.5,0.5,0.5s0.5-0.2,0.5-0.5c0-0.3-0.2-0.5-0.5-0.5
	C1,7.5,0.8,7.8,0.8,8.1z M3.6,10.9l0.1,0.6C2.5,11,1.6,10.2,1.1,9.4h0.6C2.1,10,2.7,10.5,3.6,10.9z M3.9,5.5l0.6-0.2
	C4.3,6.2,4.2,7.1,4.2,8.1c0,2.8,1,5.2,2.4,6.2v0.6c-1.7-0.9-2.9-3.6-2.9-6.8C3.7,7.2,3.8,6.3,3.9,5.5z M7.9,13.6
	c0.6,0,1.1,0.5,1.1,1.1c0,0.6-0.5,1.1-1.1,1.1c-0.6,0-1.1-0.5-1.1-1.1C6.8,14.1,7.3,13.6,7.9,13.6z M7.4,14.7c0,0.3,0.2,0.5,0.5,0.5
	c0.3,0,0.5-0.2,0.5-0.5c0-0.3-0.2-0.5-0.5-0.5C7.6,14.1,7.4,14.4,7.4,14.7z M9.2,14.2c0.6-0.4,1.1-1,1.5-1.9l0.6-0.1
	c-0.5,1.2-1.2,2.1-2.1,2.6L9.2,14.2z M6.4,6.6c0.8-0.8,2.2-0.8,3,0c0.8,0.8,0.8,2.2,0,3c-0.8,0.8-2.2,0.8-3,0
	C5.6,8.7,5.6,7.4,6.4,6.6z M9,9.2c0.6-0.6,0.6-1.6,0-2.2s-1.6-0.6-2.2,0s-0.6,1.6,0,2.2C7.4,9.8,8.4,9.8,9,9.2z M7.1,8.8
	c0.3,0.3,0.6,0.4,0.9,0.3l0.1,0.3C7.7,9.4,7.3,9.3,7,9L7.1,8.8z M8.6,8.8C9,8.4,9,7.7,8.6,7.3l0.2-0.2c0.5,0.5,0.5,1.4,0,1.9
	C8.7,9.1,8.6,9.2,8.4,9.3L8.3,9C8.4,9,8.5,8.9,8.6,8.8z M14.7,9.4c-0.9,1.7-3.6,2.9-6.8,2.9c-0.9,0-1.8-0.1-2.7-0.3l-0.1-0.6
	c0.8,0.2,1.8,0.3,2.7,0.3c2.8,0,5.2-1,6.2-2.4C14.1,9.4,14.7,9.4,14.7,9.4z"/>
</svg>
