<?xml version="1.0" encoding="utf-8"?>
<!-- Generator: Adobe Illustrator 22.0.0, SVG Export Plug-In . SVG Version: 6.00 Build 0)  -->
<svg version="1.1" id="图层_1" xmlns="http://www.w3.org/2000/svg" xmlns:xlink="http://www.w3.org/1999/xlink" x="0px" y="0px"
	 viewBox="0 0 45 45" style="enable-background:new 0 0 45 45;" xml:space="preserve">
<style type="text/css">
	.st0{fill:none;enable-background:new    ;}
</style>
<path class="st0" d="M0,0"/>
<g>
	<path d="M22.3,43C10.8,43,1.4,33.6,1.4,22.1S10.8,1.2,22.3,1.2s20.9,9.4,20.9,20.9S33.8,43,22.3,43z M22.3,2.8
		C11.7,2.8,3,11.5,3,22.1s8.6,19.3,19.3,19.3c10.6,0,19.3-8.6,19.3-19.3S32.9,2.8,22.3,2.8z"/>
	<path d="M32.8,39.2l0.5-1.7c0,0,0.2-0.8-0.3-1.6c-0.6-1-2.1-1.6-4.1-1.9c-0.9-0.1-1.9-0.4-3-0.6c-2.3-0.5-5.4-1.2-6.3-0.5
		c-0.1,0.1-0.3,0.2-0.2,0.8c0,1.1-0.2,1.8-0.8,2.2c-1,0.7-2.5,0.2-4.2-0.5c-1.1-0.4-2.2-0.9-3.1-0.9c-1.6-0.1-3.4-0.3-5.9-0.5
		l0.2-1.6c2.5,0.2,4.3,0.4,5.9,0.5c1.2,0.1,2.5,0.6,3.6,1c0.8,0.3,2.3,0.9,2.6,0.7c0,0,0.1-0.2,0.1-0.8c-0.1-1.1,0.4-1.8,0.8-2.1
		c1.5-1.3,4.5-0.6,7.7,0.1c1,0.2,2,0.5,2.9,0.6c2.6,0.4,4.4,1.3,5.3,2.7c0.3,0.4,0.4,0.9,0.5,1.3c2.5-1.8,4.3-5.2,4.1-6.8
		c-0.1-0.5-0.2-0.5-0.3-0.5c-2.3-0.5-2.3-2.5-2.3-3.9c0-0.7,0-1.5-0.2-1.9c-1.9-3.8-4.8-6.6-6.2-6.8c-0.3-0.1-0.4,0-0.4,0
		c-1,0.8-1.8,2.3-2.8,3.9c-2,3.3-4.2,7-8.2,6.4c-2.4-0.4-4-2.2-4.4-4.8c-0.3-2.6,0.6-5.2,2.1-5.9C18,15.4,19,15,18,11.6
		c-1-3.5-4-8-4-8l1.3-0.9c0.1,0.2,3.2,4.7,4.2,8.5c1.1,4,0,5.3-2.5,6.4c-0.6,0.3-1.4,2.2-1.2,4.2c0.2,1.3,0.8,3,3,3.4
		c2.9,0.5,4.7-2.6,6.5-5.6c1-1.7,1.9-3.3,3.1-4.3c0.3-0.3,0.9-0.6,1.8-0.4c2.1,0.4,5.3,3.7,7.4,7.7c0.4,0.8,0.4,1.8,0.4,2.7
		c0,1.6,0.1,2.1,1,2.3c0.9,0.2,1.5,0.9,1.6,1.9c0.3,2.7-2.6,7.5-6.2,9.1L32.8,39.2z"/>
</g>
</svg>
