<?xml version="1.0" encoding="utf-8"?>
<!-- Generator: Adobe Illustrator 22.0.0, SVG Export Plug-In . SVG Version: 6.00 Build 0)  -->
<svg version="1.1" id="图层_1" xmlns="http://www.w3.org/2000/svg" xmlns:xlink="http://www.w3.org/1999/xlink" x="0px" y="0px"
	 viewBox="0 0 45 45" style="enable-background:new 0 0 45 45;" xml:space="preserve">
<g>
	<path d="M22.5,43.3C11,43.3,1.7,34,1.7,22.6S11,1.8,22.5,1.8s20.8,9.3,20.8,20.8C43.3,34,34,43.3,22.5,43.3z M22.5,3.3
		C11.9,3.3,3.3,12,3.3,22.6s8.6,19.2,19.2,19.2s19.2-8.6,19.2-19.2C41.7,12,33.1,3.3,22.5,3.3z"/>
	<path d="M32.5,29.5l-3.9-3.9l0.5-0.5l-1-1l-1.6,1.6l-2.2-2.3l2.9-2.9c0.4,0.2,0.8,0.2,1.3,0.2c1.2,0,2.3-0.5,3.1-1.3
		c1.2-1.2,1.6-3.1,0.9-4.9l-0.4-1l-2,2.1h-1v-0.9l2.1-2.1l-1-0.4c-0.5-0.2-1.2-0.3-1.8-0.3c-1.2,0-2.3,0.5-3.1,1.3
		c-1.2,1.2-1.6,2.9-1.1,4.4l-2.9,2.9l-4.2-4.2l0.5-0.5l-3.5-3.5L12,14.4l3.5,3.5l0.5-0.5l4.2,4.2l-2.9,2.8c-0.4-0.2-0.8-0.2-1.3-0.2
		c-1.2,0-2.3,0.5-3.1,1.3c-1.3,1.3-1.6,3.2-0.9,4.9l0.4,1l2.1-2.1h0.9v1l-2.1,2.1l1,0.3c0.5,0.2,1.2,0.3,1.7,0.3
		c1.2,0,2.3-0.5,3.1-1.3c1.2-1.2,1.6-2.8,1.1-4.4l2.9-2.9l2.3,2.3l-1.6,1.6l1,1l0.5-0.5l3.9,3.9c0.4,0.4,1,0.7,1.6,0.7
		s1.2-0.2,1.6-0.7C33.5,31.8,33.5,30.2,32.5,29.5L32.5,29.5z M31.5,31.6c-0.2,0.2-0.3,0.3-0.6,0.3c-0.2,0-0.4-0.1-0.6-0.3l-3.9-3.9
		l1.2-1.2l3.9,3.9C31.8,30.8,31.8,31.2,31.5,31.6L31.5,31.6z M18.8,27.4c0.5,1.1,0.2,2.4-0.6,3.3c-0.5,0.5-1.3,0.9-2.1,0.9l0.8-0.8
		v-3H14l-0.8,0.8c0-0.8,0.3-1.6,0.9-2.1c0.5-0.5,1.3-0.9,2.1-0.9c0.4,0,0.8,0.1,1.2,0.3l0.4,0.3l8.2-8.2l-0.2-0.6
		c-0.5-1.1-0.2-2.4,0.6-3.3c0.5-0.5,1.3-0.9,2.1-0.9L27.7,14v2.9h3l0.7-0.7c0,0.8-0.3,1.5-0.9,2.1c-0.5,0.5-1.3,0.9-2.1,0.9
		c-0.4,0-0.8-0.1-1.2-0.3l-0.3-0.2l-8.2,8.2L18.8,27.4z"/>
</g>
</svg>
