<?xml version="1.0" standalone="no"?><!DOCTYPE svg PUBLIC "-//W3C//DTD SVG 1.1//EN" "http://www.w3.org/Graphics/SVG/1.1/DTD/svg11.dtd"><svg class="icon" width="16px" height="16.00px" viewBox="0 0 1024 1024" version="1.1" xmlns="http://www.w3.org/2000/svg"><path d="M936.8864 353.92A448 448 0 0 0 512.5664 33.92a448 448 0 0 0-424.32 320 229.12 229.12 0 0 0 59.52 394.88 442.88 442.88 0 0 0 300.8 192 67.84 67.84 0 1 0 3.2-44.8 396.16 396.16 0 0 1-237.44-134.4h8.96a90.24 90.24 0 0 0 88.96-90.88V398.08A90.24 90.24 0 0 0 223.2864 307.2 217.6 217.6 0 0 0 147.7664 320a396.16 396.16 0 0 1 729.6 0 217.6 217.6 0 0 0-75.52-13.44 90.24 90.24 0 0 0-88.96 90.88v273.28a90.24 90.24 0 0 0 88.96 90.88A225.28 225.28 0 0 0 1024.5664 535.04a228.48 228.48 0 0 0-87.68-180.48zM512.5664 896a23.04 23.04 0 1 1-22.4 23.04A22.4 22.4 0 0 1 512.5664 896zM267.4464 398.08v273.28a44.8 44.8 0 0 1-44.8 45.44 182.4 182.4 0 0 1 0-364.16 44.8 44.8 0 0 1 44.8 45.44z m534.4 320a44.8 44.8 0 0 1-44.8-45.44V398.08a44.8 44.8 0 0 1 44.8-45.44 181.76 181.76 0 0 1 0 364.16z m0 0"  /></svg>