<?xml version="1.0" encoding="utf-8"?>
<!-- Generator: Adobe Illustrator 21.0.0, SVG Export Plug-In . SVG Version: 6.00 Build 0)  -->
<svg version="1.1" id="图层_1" xmlns="http://www.w3.org/2000/svg" xmlns:xlink="http://www.w3.org/1999/xlink" x="0px" y="0px"
	 width="16px" height="16px" viewBox="0 0 16 16" style="enable-background:new 0 0 16 16;" xml:space="preserve">
<style type="text/css">
	.st0{fill:#CA0016;}
	.st1{fill:#FE6309;}
	.st2{fill:#FFB416;}
</style>
<g>
	<path class="st0" d="M11,4.1c0.6,0.3,1.4,0.1,1.7-0.5C13,3,12.8,2.3,12.2,1.9c-0.6-0.3-1.4-0.2-1.7,0.5C10.2,3,10.4,3.7,11,4.1z"/>
	<path class="st1" d="M8.4,4.8c1.9,0,3.4,1.4,3.6,3.3l1.8,0c-0.1-1.3-0.7-2.6-1.6-3.5c-0.5,0.2-1,0.1-1.5-0.1
		C10.2,4.1,10,3.7,9.9,3.2C9.4,3.1,8.9,3,8.4,3C7.6,3,6.8,3.2,6,3.5l0.9,1.5C7.4,4.9,7.9,4.8,8.4,4.8z"/>
	<path class="st2" d="M10.9,12.7c-0.6,0.3-0.8,1.1-0.5,1.7c0.4,0.6,1.1,0.8,1.7,0.4c0.6-0.3,0.8-1.1,0.5-1.7
		C12.3,12.6,11.5,12.4,10.9,12.7z"/>
	<path class="st0" d="M11.6,10.2c-0.9,1.6-3,2.3-4.7,1.5L6,13.2c1.2,0.6,2.5,0.7,3.8,0.4c0.1-0.5,0.4-1,0.9-1.2
		c0.5-0.3,1-0.3,1.5-0.1c0.3-0.3,0.6-0.7,0.9-1.2c0.4-0.7,0.7-1.5,0.7-2.3l-1.8,0C12,9.2,11.8,9.7,11.6,10.2z"/>
	<path class="st1" d="M2.2,7C1.5,7,1,7.6,1,8.3c0,0.7,0.5,1.3,1.2,1.3c0.7,0,1.2-0.5,1.3-1.2C3.5,7.6,2.9,7.1,2.2,7z"/>
	<path class="st2" d="M5.3,10.2C4.4,8.5,4.9,6.5,6.4,5.4L5.5,3.9C4.4,4.6,3.6,5.7,3.3,7c0.4,0.3,0.6,0.8,0.6,1.4
		c0,0.5-0.3,1-0.7,1.3c0.1,0.5,0.3,0.9,0.5,1.4c0.4,0.7,1,1.4,1.6,1.8l0.9-1.5C5.9,11.1,5.6,10.7,5.3,10.2z"/>
</g>
</svg>
