<?xml version="1.0" standalone="no"?><!DOCTYPE svg PUBLIC "-//W3C//DTD SVG 1.1//EN" "http://www.w3.org/Graphics/SVG/1.1/DTD/svg11.dtd"><svg class="icon" width="16px" height="15.91px" viewBox="0 0 1030 1024" version="1.1" xmlns="http://www.w3.org/2000/svg"><path d="M972.8 345.6l-140.8 140.8c-51.2 51.2-128 70.4-198.4 51.2l121.6-121.6s6.4 0 6.4-6.4L902.4 275.2c38.4-38.4 38.4-102.4 0-140.8-38.4-38.4-102.4-38.4-140.8 0L614.4 275.2 492.8 396.8c-19.2-70.4 0-140.8 51.2-192L684.8 64c76.8-76.8 204.8-76.8 288 0 76.8 70.4 76.8 198.4 0 281.6zM281.6 608L134.4 748.8c-38.4 38.4-38.4 102.4 0 140.8 38.4 38.4 102.4 38.4 140.8 0l140.8-140.8v-6.4l121.6-121.6c19.2 70.4 0 140.8-51.2 198.4L345.6 960c-76.8 76.8-204.8 76.8-288 0-76.8-76.8-76.8-204.8 0-288L198.4 531.2c51.2-51.2 128-70.4 192-51.2l-108.8 128z" /></svg>