<?xml version="1.0" standalone="no"?><!DOCTYPE svg PUBLIC "-//W3C//DTD SVG 1.1//EN" "http://www.w3.org/Graphics/SVG/1.1/DTD/svg11.dtd"><svg class="icon" width="16px" height="16.00px" viewBox="0 0 1024 1024" version="1.1" xmlns="http://www.w3.org/2000/svg"><path d="M969.142857 236.214857c-30.2848 0-54.857143 24.535771-54.857143 54.857143 0 18.570971 9.285486 34.929371 23.392914 44.856686l-203.893029 166.785829L520.928914 125.6064C546.929371 121.322057 566.857143 98.8928 566.857143 71.643429c0-30.321371-24.572343-54.857143-54.857143-54.857143s-54.857143 24.535771-54.857143 54.857143c0 26.7136 19.106743 48.892343 44.357486 53.7856l-211.428571 377.179429L86.321371 335.928686C100.4288 325.999543 109.714286 309.642971 109.714286 291.072c0-30.321371-24.572343-54.857143-54.857143-54.857143s-54.857143 24.535771-54.857143 54.857143 24.572343 54.857143 54.857143 54.857143c1.786514 0 3.499886-0.356571 5.249829-0.535771L189.856914 950.857143l644.286171 0 129.749943-605.463771c1.749943 0.1792 3.465143 0.535771 5.249829 0.535771 30.2848 0 54.857143-24.535771 54.857143-54.857143S999.429486 236.214857 969.142857 236.214857zM511.358171 257.464686l164.964571 292.286171L512 684.178286l-164.463543-134.535314L511.358171 257.464686zM249.000229 877.714286l-7.857371-36.571429 541.714286 0-7.857371 36.571429L249.000229 877.714286zM790.679771 804.571429 233.322057 804.571429 167.358171 496.6784 512 778.678857l344.643657-282.000457L790.679771 804.571429z" /></svg>