<?xml version="1.0" encoding="utf-8"?>
<!-- Generator: Adobe Illustrator 22.0.0, SVG Export Plug-In . SVG Version: 6.00 Build 0)  -->
<svg version="1.1" id="图层_1" xmlns="http://www.w3.org/2000/svg" xmlns:xlink="http://www.w3.org/1999/xlink" x="0px" y="0px"
	 viewBox="0 0 77 77" style="enable-background:new 0 0 77 77;" xml:space="preserve">
<g>
	<path d="M39,74.9c-20.1,0-36.4-16.3-36.4-36.4C2.6,18.4,18.9,2.1,39,2.1c20.1,0,36.4,16.3,36.4,36.4C75.4,58.6,59.1,74.9,39,74.9z
		 M39,5.1c-18.4,0-33.4,15-33.4,33.4s15,33.4,33.4,33.4s33.4-15,33.4-33.4S57.4,5.1,39,5.1z"/>
	<path d="M61.2,41.9H16.8c-2.2,0-3.9-1.7-3.9-3.9v-7.7c0-2.2,1.7-3.9,3.9-3.9h44.4c2.2,0,3.9,1.7,3.9,3.9l0,7.8
		C64.9,40.2,63.2,41.9,61.2,41.9z M16.8,29.4c-0.6,0-0.9,0.5-0.9,0.9V38c0,0.6,0.5,0.9,0.9,0.9h44.4c0.5,0,0.8-0.5,0.9-1v-7.6
		c0-0.6-0.5-0.9-0.9-0.9H16.8z"/>
	<rect x="26.3" y="32.4" width="4.2" height="3.8"/>
	<rect x="19.7" y="32.4" width="4.2" height="3.8"/>
	<rect x="33.3" y="32.4" width="25" height="3.8"/>
	<rect x="13.1" y="46.5" width="51.8" height="2.8"/>
</g>
</svg>
