<?xml version="1.0" encoding="utf-8"?>
<!-- Generator: Adobe Illustrator 22.0.0, SVG Export Plug-In . SVG Version: 6.00 Build 0)  -->
<svg version="1.1" id="图层_1" xmlns="http://www.w3.org/2000/svg" xmlns:xlink="http://www.w3.org/1999/xlink" x="0px" y="0px"
	 viewBox="0 0 45 45" style="enable-background:new 0 0 45 45;" xml:space="preserve">
<style type="text/css">
	.st0{fill:none;}
	.st1{enable-background:new    ;}
</style>
<path class="st0" d="M0,0"/>
<g>
	<path d="M23,43C11.6,43,2.4,33.8,2.4,22.4S11.6,1.8,23,1.8S43.6,11,43.6,22.4S34.4,43,23,43z M23,3.4c-10.5,0-19,8.5-19,19
		s8.5,19,19,19s19-8.5,19-19S33.5,3.4,23,3.4z"/>
	<g class="st1">
		<path d="M14.9,20.3h0.8l0.9,3c0.1,0.3,0.2,0.6,0.3,0.9c0.1,0.3,0.2,0.6,0.3,0.9h0c0.1-0.2,0.1-0.3,0.1-0.5c0-0.2,0.1-0.3,0.1-0.4
			c0-0.1,0.1-0.3,0.1-0.5c0-0.2,0.1-0.3,0.1-0.5l0.9-3h0.7l-1.8,5.6h-0.8L14.9,20.3z"/>
		<path d="M20.6,20.3h1.7c0.3,0,0.6,0,0.8,0.1c0.3,0.1,0.5,0.1,0.7,0.3c0.2,0.1,0.3,0.3,0.4,0.5c0.1,0.2,0.1,0.5,0.1,0.8
			c0,0.3,0,0.6-0.1,0.8c-0.1,0.2-0.2,0.4-0.4,0.5c-0.2,0.1-0.4,0.2-0.7,0.3s-0.5,0.1-0.8,0.1h-1v2.2h-0.7V20.3z M22.2,23.1
			c0.5,0,0.9-0.1,1.1-0.3c0.2-0.2,0.4-0.5,0.4-0.9c0-0.4-0.1-0.7-0.4-0.8c-0.2-0.2-0.6-0.2-1.1-0.2h-0.9v2.2H22.2z"/>
		<path d="M25.4,23.1c0-0.5,0.1-0.9,0.2-1.2c0.1-0.4,0.3-0.7,0.5-0.9s0.5-0.4,0.8-0.6s0.6-0.2,1-0.2c0.3,0,0.6,0.1,0.9,0.2
			c0.3,0.1,0.5,0.3,0.6,0.5l-0.4,0.5c-0.1-0.2-0.3-0.3-0.5-0.4c-0.2-0.1-0.4-0.1-0.6-0.1c-0.3,0-0.5,0.1-0.7,0.2s-0.4,0.3-0.6,0.5
			c-0.2,0.2-0.3,0.4-0.4,0.7c-0.1,0.3-0.1,0.6-0.1,0.9c0,0.4,0,0.7,0.1,1c0.1,0.3,0.2,0.5,0.4,0.7c0.2,0.2,0.3,0.4,0.6,0.5
			s0.5,0.2,0.7,0.2c0.3,0,0.5-0.1,0.7-0.2c0.2-0.1,0.4-0.3,0.6-0.5l0.4,0.4c-0.2,0.3-0.5,0.5-0.8,0.6c-0.3,0.1-0.6,0.2-1,0.2
			c-0.4,0-0.7-0.1-1-0.2c-0.3-0.1-0.6-0.3-0.8-0.6c-0.2-0.2-0.4-0.6-0.5-0.9C25.5,24,25.4,23.6,25.4,23.1z"/>
	</g>
	<g>
		<path d="M11.4,20.7H9.8v-7c0-0.8,0.6-2.2,3-2.2h7v1.6h-7c-1.4,0-1.4,0.6-1.4,0.6V20.7z"/>
		<path d="M35.9,20.7h-1.6v-7c0-0.3-0.4-0.6-1.4-0.6h-7v-1.6h7c2.4,0,3,1.4,3,2.2V20.7z"/>
		<path d="M19.8,33.2h-7c-2.4,0-3-1.4-3-2.2v-7h1.6v7c0,0.3,0.4,0.6,1.4,0.6h7V33.2z"/>
		<path d="M32.8,33.2h-7v-1.6h7c1.4,0,1.4-0.6,1.4-0.6v-7h1.6v7C35.9,31.8,35.3,33.2,32.8,33.2z"/>
	</g>
</g>
</svg>
