<?xml version="1.0" standalone="no"?><!DOCTYPE svg PUBLIC "-//W3C//DTD SVG 1.1//EN" "http://www.w3.org/Graphics/SVG/1.1/DTD/svg11.dtd"><svg class="icon" width="16px" height="16.00px" viewBox="0 0 1024 1024" version="1.1" xmlns="http://www.w3.org/2000/svg"><path d="M729.6 262.4c-44.8-89.6-140.8-153.6-249.6-153.6-147.2 0-268.8 115.2-275.2 256C96 390.4 19.2 486.4 19.2 595.2c0 128 108.8 236.8 243.2 243.2h460.8c153.6 0 275.2-128 275.2-288 6.4-153.6-115.2-281.6-268.8-288z m-96 403.2c0 19.2-12.8 32-32 32h-256c-19.2 0-32-12.8-32-32s12.8-32 32-32h256c19.2 0 32 12.8 32 32z m0-121.6c0 19.2-12.8 32-32 32h-256c-19.2 0-32-12.8-32-32s12.8-32 32-32h256c19.2 0 32 12.8 32 32z m0-128c0 19.2-12.8 32-32 32h-256c-19.2 0-32-12.8-32-32 0-12.8 12.8-32 32-32h256c19.2 0 32 19.2 32 32z m96 288c-19.2 0-32-12.8-32-32s12.8-32 32-32 32 12.8 32 32c0 12.8-12.8 32-32 32z m0-128c-19.2 0-32-12.8-32-32s12.8-32 32-32 32 12.8 32 32-12.8 32-32 32z m0-121.6c-19.2 0-32-12.8-32-32s12.8-32 32-32 32 12.8 32 32-12.8 32-32 32z" /></svg>